<svg width="115" height="24" viewBox="0 0 115 24" fill="none" xmlns="http://www.w3.org/2000/svg">
<path d="M35.632 19.4743C34.612 19.4743 33.67 19.3003 32.806 18.9523C31.954 18.6043 31.216 18.1303 30.592 17.5303C29.98 16.9303 29.5 16.2343 29.152 15.4423C28.804 14.6383 28.63 13.7803 28.63 12.8683C28.63 11.9563 28.804 11.1043 29.152 10.3123C29.5 9.5083 29.98 8.8063 30.592 8.2063C31.216 7.6063 31.954 7.1323 32.806 6.7843C33.67 6.4363 34.612 6.2623 35.632 6.2623C36.352 6.2623 36.976 6.3223 37.504 6.4423C38.044 6.5623 38.518 6.7063 38.926 6.8743V9.7903C38.506 9.5743 38.02 9.3943 37.468 9.2503C36.928 9.1063 36.37 9.0343 35.794 9.0343C35.098 9.0343 34.48 9.1363 33.94 9.3403C33.412 9.5443 32.968 9.8263 32.608 10.1863C32.248 10.5343 31.972 10.9423 31.78 11.4103C31.6 11.8663 31.51 12.3523 31.51 12.8683C31.51 13.3843 31.6 13.8763 31.78 14.3443C31.972 14.8003 32.248 15.2083 32.608 15.5683C32.968 15.9163 33.412 16.1923 33.94 16.3963C34.48 16.6003 35.098 16.7023 35.794 16.7023C36.37 16.7023 36.928 16.6303 37.468 16.4863C38.02 16.3423 38.506 16.1623 38.926 15.9463V18.8623C38.518 19.0303 38.044 19.1743 37.504 19.2943C36.976 19.4143 36.352 19.4743 35.632 19.4743Z" fill="black"/>
<path d="M46.7321 16.7023C47.2481 16.7023 47.7281 16.6003 48.1721 16.3963C48.6281 16.1923 49.0241 15.9163 49.3601 15.5683C49.6961 15.2083 49.9601 14.8003 50.1521 14.3443C50.3441 13.8763 50.4401 13.3843 50.4401 12.8683C50.4401 12.3523 50.3441 11.8663 50.1521 11.4103C49.9601 10.9423 49.6961 10.5343 49.3601 10.1863C49.0241 9.8263 48.6281 9.5443 48.1721 9.3403C47.7281 9.1363 47.2481 9.0343 46.7321 9.0343C46.2041 9.0343 45.7121 9.1363 45.2561 9.3403C44.8121 9.5443 44.4221 9.8263 44.0861 10.1863C43.7501 10.5343 43.4861 10.9423 43.2941 11.4103C43.1021 11.8663 43.0061 12.3523 43.0061 12.8683C43.0061 13.3843 43.1021 13.8763 43.2941 14.3443C43.4861 14.8003 43.7501 15.2083 44.0861 15.5683C44.4221 15.9163 44.8121 16.1923 45.2561 16.3963C45.7121 16.6003 46.2041 16.7023 46.7321 16.7023ZM46.7321 19.4743C45.8201 19.4743 44.9621 19.3003 44.1581 18.9523C43.3541 18.6043 42.6521 18.1303 42.0521 17.5303C41.4641 16.9303 40.9961 16.2343 40.6481 15.4423C40.3001 14.6383 40.1261 13.7803 40.1261 12.8683C40.1261 11.9563 40.3001 11.1043 40.6481 10.3123C40.9961 9.5083 41.4641 8.8063 42.0521 8.2063C42.6521 7.6063 43.3541 7.1323 44.1581 6.7843C44.9621 6.4363 45.8201 6.2623 46.7321 6.2623C47.6441 6.2623 48.4961 6.4363 49.2881 6.7843C50.0921 7.1323 50.7941 7.6063 51.3941 8.2063C51.9941 8.8063 52.4681 9.5083 52.8161 10.3123C53.1641 11.1043 53.3381 11.9563 53.3381 12.8683C53.3381 13.7803 53.1641 14.6383 52.8161 15.4423C52.4681 16.2343 51.9941 16.9303 51.3941 17.5303C50.7941 18.1303 50.0921 18.6043 49.2881 18.9523C48.4961 19.3003 47.6441 19.4743 46.7321 19.4743Z" fill="black"/>
<path d="M58.5069 13.3363C58.7349 13.0603 58.9449 12.8083 59.1369 12.5803C59.3409 12.3523 59.5149 12.1303 59.6589 11.9143C59.8029 11.6863 59.9109 11.4583 59.9829 11.2303C60.0669 11.0023 60.1089 10.7503 60.1089 10.4743C60.1089 10.0063 59.9409 9.6343 59.6049 9.3583C59.2809 9.0823 58.8129 8.9443 58.2009 8.9443C57.9129 8.9443 57.6129 8.9803 57.3009 9.0523C57.0009 9.1243 56.7009 9.2203 56.4009 9.3403C56.1009 9.4603 55.8129 9.5983 55.5369 9.7543C55.2609 9.8983 55.0089 10.0483 54.7809 10.2043V7.3783C55.2249 7.1023 55.7649 6.8503 56.4009 6.6223C57.0489 6.3823 57.7809 6.2623 58.5969 6.2623C59.2329 6.2623 59.8149 6.3643 60.3429 6.5683C60.8709 6.7603 61.3209 7.0303 61.6929 7.3783C62.0769 7.7263 62.3709 8.1523 62.5749 8.6563C62.7909 9.1483 62.8989 9.6883 62.8989 10.2763C62.8989 10.7683 62.8509 11.2063 62.7549 11.5903C62.6589 11.9743 62.5149 12.3463 62.3229 12.7063C62.1309 13.0663 61.8909 13.4323 61.6029 13.8043C61.3149 14.1763 60.9849 14.5963 60.6129 15.0643L59.3889 16.5763H62.9529V19.2583H53.7009L58.5069 13.3363Z" fill="black"/>
<path d="M68.1618 19.4563C67.5138 19.4563 66.8898 19.3903 66.2898 19.2583C65.6898 19.1263 65.1498 18.9283 64.6698 18.6643V16.0363C65.2218 16.3843 65.7678 16.6543 66.3078 16.8463C66.8598 17.0383 67.4238 17.1343 67.9998 17.1343C68.9478 17.1343 69.4218 16.9423 69.4218 16.5583C69.4218 16.3903 69.3378 16.2643 69.1698 16.1803C69.0018 16.0963 68.7438 16.0303 68.3958 15.9823L67.4958 15.8563C65.5398 15.5803 64.5618 14.5963 64.5618 12.9043C64.5618 12.4963 64.6458 12.1183 64.8138 11.7703C64.9938 11.4223 65.2458 11.1223 65.5698 10.8703C65.8938 10.6183 66.2838 10.4203 66.7398 10.2763C67.1958 10.1323 67.7058 10.0603 68.2698 10.0603C68.9898 10.0603 69.5898 10.1263 70.0698 10.2583C70.5498 10.3903 70.9698 10.5403 71.3298 10.7083V13.2463C70.9578 12.9943 70.5018 12.7783 69.9618 12.5983C69.4338 12.4063 68.9178 12.3103 68.4138 12.3103C67.9818 12.3103 67.6638 12.3643 67.4598 12.4723C67.2558 12.5683 67.1538 12.6943 67.1538 12.8503C67.1538 13.0183 67.2318 13.1443 67.3878 13.2283C67.5558 13.3123 67.8078 13.3783 68.1438 13.4263L68.9358 13.5343C70.0638 13.6903 70.8678 14.0023 71.3478 14.4703C71.8398 14.9383 72.0858 15.6103 72.0858 16.4863C72.0858 17.3623 71.7498 18.0763 71.0778 18.6283C70.4058 19.1803 69.4338 19.4563 68.1618 19.4563Z" fill="black"/>
<path d="M75.1144 9.3403C74.8864 9.3403 74.6704 9.2983 74.4664 9.2143C74.2624 9.1183 74.0824 8.9983 73.9264 8.8543C73.7704 8.6983 73.6444 8.5183 73.5484 8.3143C73.4644 8.1103 73.4224 7.8883 73.4224 7.6483C73.4224 7.4203 73.4644 7.2043 73.5484 7.0003C73.6444 6.7843 73.7704 6.6043 73.9264 6.4603C74.0824 6.3043 74.2624 6.1843 74.4664 6.1003C74.6704 6.0043 74.8864 5.9563 75.1144 5.9563C75.3544 5.9563 75.5764 6.0043 75.7804 6.1003C75.9964 6.1843 76.1764 6.3043 76.3204 6.4603C76.4764 6.6043 76.5964 6.7843 76.6804 7.0003C76.7764 7.2043 76.8244 7.4203 76.8244 7.6483C76.8244 7.8883 76.7764 8.1103 76.6804 8.3143C76.5964 8.5183 76.4764 8.6983 76.3204 8.8543C76.1764 8.9983 75.9964 9.1183 75.7804 9.2143C75.5764 9.2983 75.3544 9.3403 75.1144 9.3403ZM73.7644 10.2583H76.4824V19.2583H73.7644V10.2583Z" fill="black"/>
<path d="M83.0775 16.3783C83.4375 16.3783 83.7675 16.3123 84.0675 16.1803C84.3795 16.0483 84.6315 15.8443 84.8235 15.5683V13.3723C84.6315 13.0963 84.3795 12.8863 84.0675 12.7423C83.7675 12.5983 83.4375 12.5263 83.0775 12.5263C82.7895 12.5263 82.5195 12.5683 82.2675 12.6523C82.0275 12.7363 81.8115 12.8623 81.6195 13.0303C81.4275 13.1983 81.2775 13.4023 81.1695 13.6423C81.0615 13.8823 81.0075 14.1523 81.0075 14.4523C81.0075 14.7643 81.0615 15.0403 81.1695 15.2803C81.2775 15.5203 81.4275 15.7243 81.6195 15.8923C81.8115 16.0483 82.0275 16.1683 82.2675 16.2523C82.5195 16.3363 82.7895 16.3783 83.0775 16.3783ZM82.5735 22.7503C82.1415 22.7503 81.6375 22.7083 81.0615 22.6243C80.4855 22.5523 79.9095 22.4083 79.3335 22.1923V19.5283C80.2575 20.0563 81.2895 20.3203 82.4295 20.3203C83.1135 20.3203 83.6835 20.1763 84.1395 19.8883C84.5955 19.6003 84.8235 19.1683 84.8235 18.5923V18.0883C84.6075 18.3283 84.3015 18.5143 83.9055 18.6463C83.5215 18.7783 83.0835 18.8443 82.5915 18.8443C81.9915 18.8443 81.4215 18.7423 80.8815 18.5383C80.3535 18.3223 79.8915 18.0223 79.4955 17.6383C79.0995 17.2543 78.7815 16.7923 78.5415 16.2523C78.3135 15.7123 78.1995 15.1123 78.1995 14.4523C78.1995 13.8043 78.3135 13.2103 78.5415 12.6703C78.7815 12.1303 79.0995 11.6683 79.4955 11.2843C79.8915 10.9003 80.3535 10.6003 80.8815 10.3843C81.4215 10.1683 81.9915 10.0603 82.5915 10.0603C83.0835 10.0603 83.5215 10.1323 83.9055 10.2763C84.3015 10.4203 84.6075 10.6003 84.8235 10.8163V10.2583H87.5415V18.6643C87.5415 19.4083 87.4095 20.0383 87.1455 20.5543C86.8815 21.0703 86.5215 21.4903 86.0655 21.8143C85.6215 22.1383 85.0995 22.3723 84.4995 22.5163C83.8995 22.6723 83.2575 22.7503 82.5735 22.7503Z" fill="black"/>
<path d="M89.7605 10.2583H92.4785V10.9063C92.7545 10.6423 93.0905 10.4383 93.4865 10.2943C93.8945 10.1383 94.3385 10.0603 94.8185 10.0603C95.4065 10.0603 95.9225 10.1623 96.3665 10.3663C96.8225 10.5583 97.2065 10.8343 97.5185 11.1943C97.8305 11.5423 98.0645 11.9683 98.2205 12.4723C98.3885 12.9643 98.4725 13.5163 98.4725 14.1283V19.2583H95.7545V14.5963C95.7545 13.9843 95.6285 13.4863 95.3765 13.1023C95.1365 12.7183 94.7525 12.5263 94.2245 12.5263C93.8765 12.5263 93.5465 12.6043 93.2345 12.7603C92.9225 12.9163 92.6705 13.1143 92.4785 13.3543V19.2583H89.7605V10.2583Z" fill="black"/>
<path d="M104.477 19.4563C103.805 19.4563 103.199 19.3303 102.659 19.0783C102.119 18.8263 101.651 18.4843 101.255 18.0523C100.871 17.6203 100.571 17.1223 100.355 16.5583C100.151 15.9823 100.049 15.3823 100.049 14.7583C100.049 14.1343 100.151 13.5403 100.355 12.9763C100.571 12.4003 100.871 11.8963 101.255 11.4643C101.651 11.0323 102.119 10.6903 102.659 10.4383C103.199 10.1863 103.805 10.0603 104.477 10.0603C104.933 10.0603 105.341 10.1323 105.701 10.2763C106.061 10.4203 106.361 10.6003 106.601 10.8163V10.2583H109.319V19.2583H106.601V18.6823C106.361 18.9103 106.061 19.0963 105.701 19.2403C105.341 19.3843 104.933 19.4563 104.477 19.4563ZM104.891 16.9903C105.311 16.9903 105.653 16.9123 105.917 16.7563C106.181 16.5883 106.409 16.3783 106.601 16.1263V13.3723C106.409 13.1323 106.181 12.9343 105.917 12.7783C105.653 12.6103 105.311 12.5263 104.891 12.5263C104.591 12.5263 104.315 12.5863 104.063 12.7063C103.811 12.8263 103.595 12.9883 103.415 13.1923C103.235 13.3963 103.097 13.6363 103.001 13.9123C102.905 14.1763 102.857 14.4583 102.857 14.7583C102.857 15.0583 102.905 15.3463 103.001 15.6223C103.097 15.8863 103.235 16.1203 103.415 16.3243C103.595 16.5283 103.811 16.6903 104.063 16.8103C104.315 16.9303 104.591 16.9903 104.891 16.9903Z" fill="black"/>
<path d="M111.557 6.4783H114.275V19.2583H111.557V6.4783Z" fill="black"/>
<path fill-rule="evenodd" clip-rule="evenodd" d="M13.1832 3.68902C12.2922 3.11265 11.2087 2.91383 10.1711 3.13631C9.13355 3.35878 8.22684 3.98433 7.65047 4.87533C7.0741 5.76633 6.87528 6.84979 7.09776 7.88738C7.21278 8.42378 6.87416 8.9527 6.33887 9.07278C5.61804 9.23448 4.98222 9.65646 4.55322 10.2579C4.12422 10.8593 3.9322 11.5978 4.01395 12.332C4.09571 13.0662 4.44548 13.7445 4.99627 14.2368C5.54602 14.7281 6.25743 14.9998 6.99468 15L11 14.96V10C11 9.44775 11.4477 9.00003 12 9.00003C12.5523 9.00003 13 9.44775 13 10V14.94L16.8892 14.9011C17.8253 14.6889 18.6551 14.1468 19.2255 13.3724C19.8139 12.5737 20.0844 11.585 19.9848 10.598C19.8851 9.6111 19.4222 8.6964 18.6861 8.03153C17.9499 7.36666 16.993 6.99903 16.001 7.00003L15.9 7.00003C15.4285 7.00003 15.0211 6.6707 14.9222 6.20968C14.6997 5.1721 14.0742 4.26539 13.1832 3.68902ZM11 16.9601L7.0011 17.0001C5.76987 17.0014 4.58142 16.5484 3.66344 15.7279C2.74545 14.9074 2.16249 13.777 2.02624 12.5534C1.88998 11.3297 2.21001 10.0988 2.92502 9.09642C3.45908 8.34773 4.18545 7.76589 5.01953 7.40704C4.94359 6.13829 5.27236 4.86934 5.97119 3.78903C6.83567 2.45266 8.1956 1.51444 9.75183 1.18076C11.3081 0.847072 12.9331 1.14527 14.2695 2.00974C15.385 2.73135 16.2231 3.79821 16.6637 5.03628C17.9099 5.17391 19.0879 5.69949 20.0266 6.54728C21.1308 7.54459 21.8251 8.91663 21.9746 10.397C22.1242 11.8774 21.7183 13.3606 20.8358 14.5586C19.9533 15.7566 18.6572 16.5839 17.199 16.88C17.1368 16.8927 17.0735 16.8993 17.01 16.9L13 16.9401V19.5858L14.2929 18.2929C14.6834 17.9024 15.3166 17.9024 15.7071 18.2929C16.0976 18.6834 16.0976 19.3166 15.7071 19.7071L12.7071 22.7071C12.524 22.8902 12.2877 22.9874 12.048 22.9989C12.032 22.9996 12.016 23 12 23M11 16.9601V19.5858ZM11 19.5858L9.70709 18.2929C9.31657 17.9024 8.6834 17.9024 8.29288 18.2929C7.90235 18.6834 7.90235 19.3166 8.29288 19.7071L11.2929 22.7071C11.4556 22.8698 11.6604 22.9647 11.8722 22.9919C11.9116 22.9969 11.9511 22.9996 11.9908 23" fill="#357873"/>
<path d="M11 20.5V17H12L12.5 22.5L12 23L11 20.5Z" fill="#357873"/>
</svg>
