<svg xmlns="http://www.w3.org/2000/svg" xmlns:xlink="http://www.w3.org/1999/xlink" width="960" height="720" overflow="hidden" xmlns:v="https://vecta.io/nano"><style><![CDATA[.B{stroke-linejoin:round}.C{stroke-miterlimit:10}.D{stroke-width:6}.E{stroke:#2f5f98}.F{stroke-width:8}.G{stroke-width:7.333}]]></style><defs><path id="A" d="M7 119h945v534H7z"/><path id="B" d="M115 179h824v436H115z"/><path id="C" d="M586.932 178h1.65v-10.65h-2.535l-1.26 1.635h2.145Zm6.255-1.185c0-.705-.585-1.305-1.305-1.305-.705 0-1.29.6-1.29 1.305 0 .72.585 1.305 1.29 1.305.72 0 1.305-.585 1.305-1.305zm9.105-2.76v-2.79c0-2.4-1.605-4.095-3.87-4.095-2.25 0-3.855 1.695-3.855 4.095v2.79c0 2.4 1.605 4.095 3.855 4.095 2.265 0 3.87-1.695 3.87-4.095zm-6.075 0v-2.79c0-1.545.915-2.475 2.205-2.475 1.305 0 2.22.93 2.22 2.475v2.79c0 1.56-.915 2.475-2.22 2.475-1.29 0-2.205-.915-2.205-2.475zm15.465 0v-2.79c0-2.4-1.605-4.095-3.87-4.095-2.25 0-3.855 1.695-3.855 4.095v2.79c0 2.4 1.605 4.095 3.855 4.095 2.265 0 3.87-1.695 3.87-4.095zm-6.075 0v-2.79c0-1.545.915-2.475 2.205-2.475 1.305 0 2.22.93 2.22 2.475v2.79c0 1.56-.915 2.475-2.22 2.475-1.29 0-2.205-.915-2.205-2.475z"/><clipPath id="D"><path d="M0 0h960v720H0z"/></clipPath><clipPath id="E"><use xlink:href="#A"/></clipPath><clipPath id="F"><use xlink:href="#A"/></clipPath><clipPath id="G"><use xlink:href="#B"/></clipPath><clipPath id="H"><use xlink:href="#B"/></clipPath><clipPath id="I"><use xlink:href="#B"/></clipPath><clipPath id="J"><use xlink:href="#B"/></clipPath><clipPath id="K"><use xlink:href="#B"/></clipPath><clipPath id="L"><use xlink:href="#A"/></clipPath><clipPath id="M"><use xlink:href="#A"/></clipPath><clipPath id="N"><use xlink:href="#A"/></clipPath><clipPath id="O"><use xlink:href="#A"/></clipPath><clipPath id="P"><use xlink:href="#A"/></clipPath><clipPath id="Q"><use xlink:href="#A"/></clipPath><clipPath id="R"><use xlink:href="#A"/></clipPath><clipPath id="S"><use xlink:href="#A"/></clipPath><clipPath id="T"><use xlink:href="#A"/></clipPath><clipPath id="U"><use xlink:href="#A"/></clipPath><clipPath id="V"><use xlink:href="#A"/></clipPath><clipPath id="W"><use xlink:href="#A"/></clipPath><clipPath id="X"><use xlink:href="#A"/></clipPath><clipPath id="Y"><use xlink:href="#A"/></clipPath><clipPath id="Z"><use xlink:href="#A"/></clipPath><clipPath id="a"><use xlink:href="#A"/></clipPath><clipPath id="b"><use xlink:href="#A"/></clipPath><clipPath id="c"><use xlink:href="#A"/></clipPath><clipPath id="d"><use xlink:href="#A"/></clipPath><clipPath id="e"><use xlink:href="#A"/></clipPath><clipPath id="f"><path d="M266 126h327v29H266z"/></clipPath><clipPath id="g"><use xlink:href="#A"/></clipPath><clipPath id="h"><use xlink:href="#A"/></clipPath><clipPath id="i"><path d="M353 126h294v29H353z"/></clipPath><clipPath id="j"><use xlink:href="#A"/></clipPath><clipPath id="k"><use xlink:href="#A"/></clipPath><clipPath id="l"><path d="M393 126h360v29H393z"/></clipPath><clipPath id="m"><use xlink:href="#A"/></clipPath><clipPath id="n"><use xlink:href="#A"/></clipPath><clipPath id="o"><path d="M493 126h307v29H493z"/></clipPath></defs><g clip-path="url(#D)"><path fill="#fff" d="M0 0h960v720H0Z"/><path fill="#f8f8f8" d="M0 11h960v98H0Z"/><path fill="#335ab9" d="M34.606 62h5.365V35.73h-5.365zm10.36 0h5.069v-9.028c0-3.552 1.517-5.254 3.7-5.254 1.998 0 2.886 1.665 2.886 4.403V62h5.069v-9.028c0-3.552 1.517-5.254 3.7-5.254 1.998 0 2.886 1.665 2.886 4.403V62h5.069V51.27c0-4.995-2.516-8.177-6.92-8.177-2.108 0-4.587 1.11-5.734 3.404-1.11-2.146-3.034-3.404-5.735-3.404-2.257 0-3.922 1.073-4.921 2.516V43.5h-5.07zm31.857-9.25c0 5.254 3.774 9.657 8.695 9.657 2.553 0 4.514-1.295 5.328-2.479V62h5.069V43.5h-5.07v2.072c-.813-1.184-2.774-2.479-5.327-2.479-4.921 0-8.695 4.403-8.695 9.657zm14.43 0c0 2.886-1.887 5.032-4.662 5.032s-4.662-2.146-4.662-5.032 1.887-5.032 4.662-5.032 4.662 2.146 4.662 5.032zm27.565 7.807V43.5h-5.07v2.072c-.961-1.406-2.996-2.479-5.364-2.479-4.81 0-8.732 4.144-8.732 9.361 0 5.18 3.922 9.324 8.732 9.324 2.368 0 4.403-1.073 5.365-2.442v1.258c0 2.96-1.961 5.069-4.958 5.069a8.36 8.36 0 0 1-5.772-2.294l-2.775 3.774c2.109 1.998 5.439 2.96 8.62 2.96 5.662 0 9.954-2.849 9.954-9.546zm-14.06-8.103c0-2.849 2.146-4.736 4.699-4.736s4.699 1.887 4.699 4.736c0 2.812-2.146 4.736-4.7 4.736s-4.698-1.924-4.698-4.736zm17.722.296c0 5.846 4.293 9.657 9.806 9.657 3.885 0 6.882-1.665 8.584-4.144l-3.774-2.812c-.814 1.258-2.48 2.331-4.773 2.331-2.442 0-4.625-1.369-4.921-3.848h13.838c.074-.777.074-1.295.074-1.739 0-5.994-4.255-9.102-9.102-9.102-5.624 0-9.731 4.181-9.731 9.657zm9.584-5.476c1.887 0 3.737 1.036 4.18 3.219h-8.657c.48-2.257 2.59-3.219 4.477-3.219zM153.968 62h5.365V51.381h8.325v-5.106h-8.325v-5.439h10.619V35.73h-15.984zm36.001-9.25c0-5.402-4.366-9.657-9.731-9.657s-9.731 4.255-9.731 9.657 4.366 9.657 9.73 9.657 9.732-4.255 9.732-9.657zm-14.356 0c0-2.849 1.96-4.921 4.625-4.921s4.588 2.072 4.588 4.921-1.924 4.921-4.588 4.921-4.625-2.072-4.625-4.921zM193.632 62h5.069v-8.843c0-3.034 1.59-4.921 3.996-4.921.814 0 1.517.148 2.294.407V43.5a5.82 5.82 0 0 0-1.702-.222c-2.072 0-3.96 1.369-4.588 3.182V43.5h-5.07zm14.615 0h5.069v-9.028c0-3.552 1.517-5.254 3.7-5.254 1.998 0 2.886 1.665 2.886 4.403V62h5.069v-9.028c0-3.552 1.517-5.254 3.7-5.254 1.998 0 2.886 1.665 2.886 4.403V62h5.069V51.27c0-4.995-2.516-8.177-6.92-8.177-2.108 0-4.587 1.11-5.734 3.404-1.11-2.146-3.034-3.404-5.735-3.404-2.257 0-3.922 1.073-4.921 2.516V43.5h-5.07zm31.857-9.25c0 5.254 3.774 9.657 8.695 9.657 2.553 0 4.514-1.295 5.328-2.479V62h5.069V43.5h-5.07v2.072c-.813-1.184-2.774-2.479-5.327-2.479-4.921 0-8.695 4.403-8.695 9.657zm14.43 0c0 2.886-1.887 5.032-4.662 5.032s-4.662-2.146-4.662-5.032 1.887-5.032 4.662-5.032 4.662 2.146 4.662 5.032zm21.756 9.065v-4.477c-.593.222-1.259.333-2.073.333-2.183 0-3.145-.888-3.145-3.145V47.94h5.217V43.5h-5.217v-5.143h-5.069V43.5h-3.737v4.44h3.737v7.585c0 4.514 3.145 6.697 7.067 6.697 1.406 0 2.405-.148 3.22-.407zm16.871-5.439c0-3.219-2.035-4.847-5.365-5.735l-1.739-.518c-1.554-.407-1.813-1.036-1.813-1.591 0-.851.962-1.258 1.85-1.258 1.221 0 2.294.555 3.145 1.628l3.33-2.701c-1.406-2.035-3.589-3.108-6.4-3.108-3.923 0-6.883 2.183-6.957 5.587-.074 2.849 1.702 5.032 5.106 5.92l1.37.333c2.034.555 2.478.999 2.478 1.776 0 .925-.999 1.332-2.035 1.332-1.776 0-3.33-.777-4.144-2.146l-3.478 2.96c1.591 2.405 4.366 3.552 7.622 3.552 3.96 0 7.03-2.442 7.03-6.031zm10.73 1.369c1.887 2.886 5.402 4.699 9.583 4.699 5.44 0 9.176-3.219 9.213-7.918 0-3.959-2.405-6.401-6.253-7.807l-2.109-.777c-2.775-.999-4.07-1.702-4.07-3.293 0-1.554 1.702-2.331 3.515-2.331s3.441.74 4.7 2.257l3.551-3.663c-2.257-2.516-5.069-3.626-8.288-3.626-5.106 0-8.88 2.923-8.88 7.881 0 3.589 2.257 6.031 6.475 7.511l2.22.777c2.59.888 3.663 1.924 3.663 3.404 0 1.517-1.406 2.553-3.515 2.553-2.146 0-4.403-1.147-5.698-3.108zm28.194-20.498c0-1.776-1.443-3.219-3.256-3.219a3.25 3.25 0 0 0-3.219 3.219 3.25 3.25 0 0 0 3.22 3.219c1.812 0 3.255-1.443 3.255-3.219zM326.313 62h5.07V43.5h-5.07zm9.028 0h15.503v-4.588h-8.917l8.621-9.916V43.5h-15.096v4.588H344l-8.658 9.953zm17.909-9.25c0 5.846 4.291 9.657 9.804 9.657 3.885 0 6.882-1.665 8.584-4.144l-3.774-2.812c-.814 1.258-2.479 2.331-4.773 2.331-2.442 0-4.625-1.369-4.92-3.848h13.837c.074-.777.074-1.295.074-1.739 0-5.994-4.255-9.102-9.102-9.102-5.624 0-9.73 4.181-9.73 9.657zm9.582-5.476c1.887 0 3.737 1.036 4.181 3.219h-8.658c.481-2.257 2.59-3.219 4.477-3.219zm20.35 1.591a13.564 13.564 0 0 0 13.579 13.579c5.365 0 9.879-2.775 12.136-6.993l-4.662-2.59c-1.554 2.701-4.07 4.403-7.474 4.403-4.588 0-8.177-3.811-8.177-8.399s3.589-8.399 8.177-8.399c3.404 0 5.92 1.702 7.474 4.403l4.662-2.59c-2.257-4.218-6.771-6.993-12.136-6.993a13.564 13.564 0 0 0-13.579 13.579zm47.175 3.885c0-5.402-4.366-9.657-9.731-9.657s-9.731 4.255-9.731 9.657 4.366 9.657 9.731 9.657 9.731-4.255 9.731-9.657zm-14.356 0c0-2.849 1.961-4.921 4.625-4.921s4.588 2.072 4.588 4.921-1.924 4.921-4.588 4.921-4.625-2.072-4.625-4.921zM434.02 62h5.069v-9.028c0-3.552 1.517-5.254 3.7-5.254 1.998 0 2.886 1.665 2.886 4.403V62h5.069v-9.028c0-3.552 1.517-5.254 3.7-5.254 1.998 0 2.886 1.665 2.886 4.403V62h5.069V51.27c0-4.995-2.516-8.177-6.92-8.177-2.108 0-4.587 1.11-5.734 3.404-1.11-2.146-3.034-3.404-5.735-3.404-2.257 0-3.922 1.073-4.921 2.516V43.5h-5.07zm33.04 7.733h5.07v-9.805c.85 1.184 2.812 2.479 5.365 2.479 4.92 0 8.695-4.403 8.695-9.657s-3.774-9.657-8.695-9.657c-2.553 0-4.514 1.295-5.365 2.479V43.5h-5.07zm13.987-16.983c0 2.886-1.887 5.032-4.662 5.032s-4.662-2.146-4.662-5.032 1.887-5.032 4.662-5.032 4.662 2.146 4.662 5.032zm7.659 0c0 5.254 3.774 9.657 8.695 9.657 2.553 0 4.514-1.295 5.328-2.479V62h5.069V43.5h-5.07v2.072c-.813-1.184-2.774-2.479-5.327-2.479-4.921 0-8.695 4.403-8.695 9.657zm14.43 0c0 2.886-1.887 5.032-4.662 5.032s-4.662-2.146-4.662-5.032 1.887-5.032 4.662-5.032 4.662 2.146 4.662 5.032zm9.583 9.25h5.069v-8.843c0-3.034 1.59-4.921 3.996-4.921.814 0 1.517.148 2.294.407V43.5a5.82 5.82 0 0 0-1.702-.222c-2.072 0-3.96 1.369-4.588 3.182V43.5h-5.07zm20.387-24.753c0-1.776-1.443-3.219-3.256-3.219a3.25 3.25 0 0 0-3.22 3.219 3.25 3.25 0 0 0 3.22 3.219c1.813 0 3.256-1.443 3.256-3.219zM527.334 62h5.069V43.5h-5.07zm23.199-5.624c0-3.219-2.035-4.847-5.365-5.735l-1.74-.518c-1.553-.407-1.812-1.036-1.812-1.591 0-.851.962-1.258 1.85-1.258 1.22 0 2.294.555 3.145 1.628l3.33-2.701c-1.406-2.035-3.59-3.108-6.401-3.108-3.922 0-6.882 2.183-6.956 5.587-.074 2.849 1.702 5.032 5.106 5.92l1.369.333c2.035.555 2.479.999 2.479 1.776 0 .925-1 1.332-2.035 1.332-1.776 0-3.33-.777-4.144-2.146l-3.478 2.96c1.59 2.405 4.366 3.552 7.622 3.552 3.959 0 7.03-2.442 7.03-6.031zm21.977-3.626c0-5.402-4.365-9.657-9.73-9.657s-9.731 4.255-9.731 9.657 4.366 9.657 9.73 9.657 9.732-4.255 9.732-9.657zm-14.355 0c0-2.849 1.96-4.921 4.625-4.921s4.588 2.072 4.588 4.921-1.924 4.921-4.588 4.921-4.625-2.072-4.625-4.921zM576.174 62h5.069v-9.028c0-3.552 1.776-5.254 4.107-5.254 2.109 0 3.256 1.628 3.256 4.292V62h5.069V51.159c0-4.81-2.664-8.066-7.141-8.066-2.405 0-4.33 1.036-5.291 2.516V43.5h-5.07zm38.369 5.92c-3.145-6.105-4.477-11.692-4.477-17.76s1.332-11.655 4.477-17.76h-4.033c-3.182 5.772-4.736 11.655-4.736 17.76s1.554 11.988 4.736 17.76zm24.383-16.28V35.73h-5.365v15.984c0 3.478-2.146 5.55-5.328 5.55s-5.328-2.072-5.328-5.55V35.73h-5.365v15.91c0 6.549 4.403 10.804 10.693 10.804 6.216 0 10.693-4.255 10.693-10.804zM643.402 62h5.07v-9.028c0-3.552 1.775-5.254 4.106-5.254 2.11 0 3.256 1.628 3.256 4.292V62h5.07V51.159c0-4.81-2.665-8.066-7.142-8.066-2.405 0-4.329 1.036-5.29 2.516V43.5h-5.07zm39.553-4.921l-4.403-2.368c-.74 1.702-2.33 2.96-4.366 2.96-2.664 0-4.699-2.072-4.699-4.921s2.035-4.921 4.7-4.921c2.034 0 3.625 1.258 4.365 2.96l4.403-2.368c-1.59-3.182-4.92-5.328-8.769-5.328-5.476 0-9.805 4.07-9.805 9.657s4.33 9.657 9.805 9.657c3.848 0 7.178-2.146 8.77-5.328zm21.497-4.329c0-5.402-4.366-9.657-9.73-9.657s-9.732 4.255-9.732 9.657 4.366 9.657 9.731 9.657 9.731-4.255 9.731-9.657zm-14.356 0c0-2.849 1.961-4.921 4.625-4.921s4.588 2.072 4.588 4.921-1.924 4.921-4.588 4.921-4.625-2.072-4.625-4.921zM708.115 62h5.07v-9.028c0-3.552 1.516-5.254 3.7-5.254 1.997 0 2.885 1.665 2.885 4.403V62h5.07v-9.028c0-3.552 1.516-5.254 3.7-5.254 1.997 0 2.885 1.665 2.885 4.403V62h5.07V51.27c0-4.995-2.517-8.177-6.92-8.177-2.109 0-4.588 1.11-5.735 3.404-1.11-2.146-3.034-3.404-5.735-3.404-2.257 0-3.922 1.073-4.92 2.516V43.5h-5.07zm33.041 7.733h5.07v-9.805c.85 1.184 2.811 2.479 5.364 2.479 4.921 0 8.695-4.403 8.695-9.657s-3.774-9.657-8.695-9.657c-2.553 0-4.514 1.295-5.365 2.479V43.5h-5.069zm13.986-16.983c0 2.886-1.887 5.032-4.662 5.032s-4.662-2.146-4.662-5.032 1.887-5.032 4.662-5.032 4.662 2.146 4.662 5.032zm8.843 9.25h5.07v-8.843c0-3.034 1.59-4.921 3.995-4.921.814 0 1.517.148 2.294.407V43.5a5.82 5.82 0 0 0-1.702-.222c-2.072 0-3.959 1.369-4.588 3.182V43.5h-5.069zm12.765-9.25c0 5.846 4.292 9.657 9.805 9.657 3.885 0 6.882-1.665 8.584-4.144l-3.774-2.812c-.814 1.258-2.479 2.331-4.773 2.331-2.442 0-4.625-1.369-4.92-3.848h13.837c.074-.777.074-1.295.074-1.739 0-5.994-4.255-9.102-9.102-9.102-5.624 0-9.73 4.181-9.73 9.657zm9.583-5.476c1.887 0 3.737 1.036 4.181 3.219h-8.658c.481-2.257 2.59-3.219 4.477-3.219zm26.233 9.102c0-3.219-2.035-4.847-5.365-5.735l-1.739-.518c-1.554-.407-1.813-1.036-1.813-1.591 0-.851.962-1.258 1.85-1.258 1.221 0 2.294.555 3.145 1.628l3.33-2.701c-1.406-2.035-3.589-3.108-6.4-3.108-3.923 0-6.883 2.183-6.957 5.587-.074 2.849 1.702 5.032 5.106 5.92l1.37.333c2.034.555 2.478.999 2.478 1.776 0 .925-.999 1.332-2.035 1.332-1.776 0-3.33-.777-4.144-2.146l-3.478 2.96c1.591 2.405 4.366 3.552 7.622 3.552 3.96 0 7.03-2.442 7.03-6.031zm16.984 0c0-3.219-2.036-4.847-5.366-5.735l-1.739-.518c-1.554-.407-1.813-1.036-1.813-1.591 0-.851.962-1.258 1.85-1.258 1.221 0 2.294.555 3.145 1.628l3.33-2.701c-1.406-2.035-3.589-3.108-6.4-3.108-3.923 0-6.883 2.183-6.957 5.587-.074 2.849 1.702 5.032 5.106 5.92l1.37.333c2.034.555 2.478.999 2.478 1.776 0 .925-.999 1.332-2.035 1.332-1.776 0-3.33-.777-4.144-2.146l-3.478 2.96c1.591 2.405 4.366 3.552 7.622 3.552 3.96 0 7.03-2.442 7.03-6.031zm2.552-3.626c0 5.846 4.292 9.657 9.805 9.657 3.885 0 6.882-1.665 8.584-4.144l-3.774-2.812c-.814 1.258-2.479 2.331-4.773 2.331-2.442 0-4.625-1.369-4.92-3.848h13.837a16.55 16.55 0 0 0 .074-1.739c0-5.994-4.255-9.102-9.102-9.102-5.624 0-9.73 4.181-9.73 9.657zm9.583-5.476c1.887 0 3.737 1.036 4.181 3.219h-8.658c.481-2.257 2.59-3.219 4.477-3.219zm11.803 5.476c0 5.254 3.774 9.657 8.695 9.657 2.553 0 4.514-1.295 5.328-2.479V62h5.07V34.25h-5.07v11.322c-.814-1.184-2.775-2.479-5.328-2.479-4.92 0-8.695 4.403-8.695 9.657zm14.43 0c0 2.886-1.887 5.032-4.662 5.032s-4.662-2.146-4.662-5.032 1.887-5.032 4.662-5.032 4.662 2.146 4.662 5.032zm7.955 15.17h4.033c3.182-5.772 4.736-11.655 4.736-17.76s-1.554-11.988-4.736-17.76h-4.033c3.145 6.105 4.477 11.692 4.477 17.76s-1.332 11.655-4.477 17.76z"/><g fill="#64748b"><path d="M35.843 90.56c-1.36-2.64-1.936-5.056-1.936-7.68s.576-5.04 1.936-7.68h-1.424c-1.376 2.496-2.048 5.04-2.048 7.68s.672 5.184 2.048 7.68zM37.65 88h1.873v-4.864h3.84V81.36h-3.84v-2.928h4.88V76.64H37.65zm15.489-4c0-2.32-1.824-4.16-4.192-4.16s-4.192 1.84-4.192 4.16 1.824 4.16 4.192 4.16 4.192-1.84 4.192-4.16zm-6.608 0c0-1.424.992-2.528 2.416-2.528 1.408 0 2.4 1.104 2.4 2.528s-.992 2.528-2.4 2.528c-1.424 0-2.416-1.104-2.416-2.528zm8.384 4h1.76v-3.904c0-1.6.912-2.448 1.92-2.448a2.74 2.74 0 0 1 .88.144v-1.808a3.443 3.443 0 0 0-.688-.064c-.912 0-1.808.592-2.112 1.504V80h-1.76zm6.08 0h1.76v-3.936c0-1.68.784-2.624 1.92-2.624.96 0 1.424.816 1.424 2.064V88h1.76v-3.936c0-1.68.768-2.624 1.904-2.624.96 0 1.424.816 1.424 2.064V88h1.76v-4.784c0-2.048-1.072-3.376-2.88-3.376-1.056 0-2.08.56-2.56 1.584-.432-.992-1.296-1.584-2.48-1.584-1.024 0-1.824.496-2.272 1.248V80h-1.76zm13.632-4c0 2.288 1.664 4.16 3.856 4.16 1.152 0 2.112-.592 2.56-1.232V88h1.76v-8h-1.76v1.072c-.448-.64-1.408-1.232-2.56-1.232-2.192 0-3.856 1.872-3.856 4.16zm6.56 0c0 1.44-.96 2.56-2.384 2.56s-2.384-1.12-2.384-2.56.96-2.56 2.384-2.56 2.384 1.12 2.384 2.56zm8.783 3.904v-1.568c-.255.096-.607.16-.943.16-.912 0-1.344-.368-1.344-1.36v-3.568h2.288V80h-2.288v-2.224h-1.76V80h-1.664v1.568h1.664v3.856c0 1.808 1.2 2.656 2.736 2.656.544 0 .96-.064 1.312-.176zm7.105-2.224c0-1.312-.832-2.016-2.24-2.432l-.816-.24c-.784-.224-.96-.56-.96-.944 0-.48.544-.752 1.072-.752.656 0 1.168.32 1.52.816l1.216-.928c-.56-.88-1.504-1.36-2.704-1.36-1.6 0-2.848.864-2.864 2.288-.016 1.184.704 2.064 2.096 2.448l.704.192c.96.288 1.232.56 1.232 1.024 0 .56-.528.848-1.152.848-.816 0-1.6-.4-1.92-1.104l-1.296.928c.576 1.136 1.792 1.696 3.216 1.696 1.648 0 2.896-.944 2.896-2.48zm4.32-4.48c0-.752-.624-1.392-1.392-1.392-.752 0-1.376.64-1.376 1.392a1.39 1.39 0 0 0 1.376 1.392c.768 0 1.392-.624 1.392-1.392zm0 5.536c0-.752-.624-1.392-1.392-1.392-.752 0-1.376.64-1.376 1.392a1.39 1.39 0 0 0 1.376 1.392c.768 0 1.392-.624 1.392-1.392zm11.488-1.856v-8.24h-1.872v8.08c0 1.232-.752 1.728-1.6 1.728-.864 0-1.632-.544-1.632-1.6h-1.856c0 2.24 1.616 3.344 3.488 3.344 1.824 0 3.472-.96 3.472-3.312zm6.304-8.24h-3.616V88h1.872v-3.936h1.744c2.336 0 3.936-1.616 3.936-3.712s-1.6-3.712-3.936-3.712zm-.016 5.664h-1.728V78.4h1.728c1.328 0 2.112.848 2.112 1.952s-.784 1.952-2.112 1.952zM124.922 88h6.832v-1.792h-4.96v-3.072h4v-1.792h-4v-2.912h4.96V76.64h-6.832zm18.645-1.44v-5.2h-4.672v1.76h2.848v2.528c-.64.528-1.696.736-2.72.736-2.592 0-4.24-1.76-4.24-4.064 0-2.256 1.68-4.064 4.064-4.064 1.376 0 2.384.496 3.12 1.232l1.28-1.328c-1.056-1.088-2.544-1.712-4.4-1.712-3.424 0-5.952 2.592-5.952 5.872 0 3.312 2.576 5.872 6.144 5.872 1.744 0 3.504-.528 4.528-1.632zm4.128 1.04c.16-.256.272-.544.272-.864a1.39 1.39 0 0 0-1.376-1.392 1.39 1.39 0 0 0-1.376 1.392 1.41 1.41 0 0 0 .784 1.264l-1.104 2.352h1.088zm9.808-10.96h-3.616V88h1.872v-3.936h1.744c2.336 0 3.936-1.616 3.936-3.712s-1.6-3.712-3.936-3.712zm-.016 5.664h-1.728V78.4h1.728c1.328 0 2.112.848 2.112 1.952s-.784 1.952-2.112 1.952zM173.199 88V76.64h-1.888v8.144l-6.384-8.144h-1.632V88h1.872v-8.176l6.4 8.176zm12.736-1.44v-5.2h-4.672v1.76h2.848v2.528c-.64.528-1.696.736-2.72.736-2.592 0-4.24-1.76-4.24-4.064 0-2.256 1.68-4.064 4.064-4.064 1.376 0 2.384.496 3.12 1.232l1.28-1.328c-1.056-1.088-2.544-1.712-4.4-1.712-3.424 0-5.952 2.592-5.952 5.872 0 3.312 2.576 5.872 6.144 5.872 1.744 0 3.504-.528 4.528-1.632zm4.128 1.04c.16-.256.272-.544.272-.864a1.39 1.39 0 0 0-1.376-1.392 1.39 1.39 0 0 0-1.376 1.392 1.41 1.41 0 0 0 .784 1.264l-1.104 2.352h1.088zm14.736.4h1.728l2.944-11.36h-1.984l-2.08 8.256-3.248-8.448-3.248 8.448-2.08-8.256h-1.968L197.79 88h1.728l2.64-6.944zm4.988-4c0 2.432 1.744 4.16 4.176 4.16 1.68 0 2.928-.72 3.648-1.856l-1.344-.96c-.416.704-1.168 1.216-2.288 1.216-1.328 0-2.384-.864-2.464-2.176h6.288l.016-.576c0-2.576-1.76-3.968-3.856-3.968-2.432 0-4.176 1.808-4.176 4.16zm4.112-2.672c1.024 0 1.952.624 2.144 1.776h-4.448c.24-1.184 1.28-1.776 2.304-1.776zm7.488 5.6c.448.64 1.424 1.232 2.576 1.232 2.192 0 3.856-1.872 3.856-4.16s-1.664-4.16-3.856-4.16c-1.152 0-2.128.592-2.576 1.232V76h-1.76v12h1.76zm4.64-2.928c0 1.44-.976 2.56-2.384 2.56-1.424 0-2.4-1.12-2.4-2.56s.976-2.56 2.4-2.56c1.408 0 2.384 1.12 2.384 2.56zm7.384-7.36h-3.616V88h1.872v-3.936h1.744c2.336 0 3.936-1.616 3.936-3.712s-1.6-3.712-3.936-3.712zm-.016 5.664h-1.728V78.4h1.728c1.328 0 2.112.848 2.112 1.952s-.784 1.952-2.112 1.952zm5.84 5.296c.16-.256.272-.544.272-.864a1.39 1.39 0 0 0-1.376-1.392 1.39 1.39 0 0 0-1.376 1.392 1.41 1.41 0 0 0 .784 1.264l-1.104 2.352h1.088zm4.352.4h1.936l1.28-2.976h5.088L253.187 88h1.952l-4.96-11.36h-1.632zm3.936-4.64l1.824-4.208 1.824 4.208zM258.947 88h1.632l4.768-11.36h-2.064l-3.52 8.496-3.536-8.496h-2.048zm7.888 0h1.872V76.64h-1.872zm4.655 0h1.873v-4.864h3.84V81.36h-3.84v-2.928h4.88V76.64h-6.752zm10.657-6.8c0-.752-.624-1.392-1.392-1.392-.752 0-1.376.64-1.376 1.392a1.39 1.39 0 0 0 1.376 1.392c.768 0 1.392-.624 1.392-1.392zm-.272 6.4c.16-.256.272-.544.272-.864a1.39 1.39 0 0 0-1.376-1.392 1.39 1.39 0 0 0-1.376 1.392 1.41 1.41 0 0 0 .784 1.264l-1.104 2.352h1.088zm16.272.4V76.64h-1.888v8.144l-6.384-8.144h-1.632V88h1.872v-8.176l6.4 8.176zm2.432-5.568h6.752V80.88h-6.752zm0 3.408h6.752v-1.536h-6.752zm8.301-1.024c.064 1.888 1.856 3.344 3.92 3.344 2.288 0 3.904-1.536 3.904-3.664 0-2.256-1.424-3.92-3.584-3.92-.736 0-1.36.208-1.776.496l.528-2.72h4.032V76.64h-5.408l-1.216 6.24 1.584.496c.368-.704 1.056-1.168 1.984-1.168 1.216 0 2.08.928 2.08 2.112 0 1.168-.848 2.112-2.128 2.112-1.04 0-1.888-.688-2.112-1.616zM318.432 88h2.208l3.808-4.768c.768-.992 1.296-1.776 1.296-2.96 0-2.128-1.6-3.824-3.904-3.824s-3.904 1.696-3.904 3.84c0 2.128 1.744 3.648 3.552 3.648h.176zm1.296-7.728c0-1.168.896-2.128 2.112-2.128s2.112.96 2.112 2.128c0 1.184-.896 2.144-2.112 2.144s-2.112-.96-2.112-2.144zm15.712 3.52v-2.976c0-2.56-1.712-4.368-4.128-4.368-2.4 0-4.112 1.808-4.112 4.368v2.976c0 2.56 1.712 4.368 4.112 4.368 2.416 0 4.128-1.808 4.128-4.368zm-6.48 0v-2.976c0-1.648.976-2.64 2.352-2.64 1.392 0 2.368.992 2.368 2.64v2.976c0 1.664-.976 2.64-2.368 2.64-1.376 0-2.352-.976-2.352-2.64zm15.936 1.008c0-1.296-.72-2.256-1.712-2.688a2.908 2.908 0 0 0 1.392-2.464c.016-1.856-1.44-3.2-3.552-3.2-2.048 0-3.856 1.376-3.856 3.664h1.776c0-1.216.912-1.936 2.08-1.936.992 0 1.792.64 1.776 1.584s-.752 1.616-1.872 1.616h-.896v1.504h.896c1.312 0 2.192.608 2.192 1.808-.016 1.104-.896 1.744-2.032 1.744-1.28 0-2.272-.752-2.368-2h-1.76c.048 2.288 1.904 3.728 4.128 3.728 2.256 0 3.808-1.36 3.808-3.36zm4.451-3.6c0-.752-.624-1.392-1.392-1.392-.752 0-1.376.64-1.376 1.392a1.39 1.39 0 0 0 1.376 1.392c.768 0 1.392-.624 1.392-1.392zm-.272 6.4c.16-.256.272-.544.272-.864a1.39 1.39 0 0 0-1.376-1.392 1.39 1.39 0 0 0-1.376 1.392 1.41 1.41 0 0 0 .784 1.264l-1.104 2.352h1.088zm6.16.4h1.76v-3.936c0-1.712.896-2.624 2.064-2.624 1.024 0 1.664.768 1.664 2.032V88h1.76v-4.816c0-2.032-1.2-3.344-3.056-3.344-1.04 0-1.952.448-2.432 1.248V80h-1.76zm17.312-4c0-2.32-1.824-4.16-4.192-4.16s-4.192 1.84-4.192 4.16 1.824 4.16 4.192 4.16 4.192-1.84 4.192-4.16zm-6.608 0c0-1.424.992-2.528 2.416-2.528 1.408 0 2.4 1.104 2.4 2.528s-.992 2.528-2.4 2.528c-1.424 0-2.416-1.104-2.416-2.528zm8.384 4h1.76v-3.904c0-1.6.912-2.448 1.92-2.448a2.74 2.74 0 0 1 .88.144v-1.808a3.443 3.443 0 0 0-.688-.064c-.912 0-1.808.592-2.112 1.504V80h-1.76zm6.08 0h1.76v-3.936c0-1.68.784-2.624 1.92-2.624.96 0 1.424.816 1.424 2.064V88h1.76v-3.936c0-1.68.768-2.624 1.904-2.624.96 0 1.424.816 1.424 2.064V88h1.76v-4.784c0-2.048-1.072-3.376-2.88-3.376-1.056 0-2.08.56-2.56 1.584-.432-.992-1.296-1.584-2.48-1.584-1.024 0-1.824.496-2.272 1.248V80h-1.76zm13.632-4c0 2.288 1.664 4.16 3.856 4.16 1.152 0 2.112-.592 2.56-1.232V88h1.76v-8h-1.76v1.072c-.448-.64-1.408-1.232-2.56-1.232-2.192 0-3.856 1.872-3.856 4.16zm6.56 0c0 1.44-.96 2.56-2.384 2.56s-2.384-1.12-2.384-2.56.96-2.56 2.384-2.56 2.384 1.12 2.384 2.56zm4 4h1.76V76h-1.76zm6.175-10.928c0-.64-.511-1.168-1.167-1.168a1.19 1.19 0 0 0-1.184 1.168c0 .656.544 1.184 1.184 1.184.656 0 1.168-.528 1.168-1.184zM408.724 88h1.76v-8h-1.76zm3.583 0h6.592v-1.6h-4.304l4.176-4.992V80h-6.4v1.6h4.128l-4.192 5.008zm7.696-4c0 2.432 1.744 4.16 4.176 4.16 1.68 0 2.928-.72 3.648-1.856l-1.344-.96c-.416.704-1.168 1.216-2.288 1.216-1.328 0-2.384-.864-2.464-2.176h6.288l.016-.576c0-2.576-1.76-3.968-3.856-3.968-2.432 0-4.176 1.808-4.176 4.16zm4.112-2.672c1.024 0 1.952.624 2.144 1.776h-4.448c.24-1.184 1.28-1.776 2.304-1.776zM429.267 84c0 2.288 1.664 4.16 3.856 4.16 1.152 0 2.112-.592 2.56-1.232V88h1.76V76h-1.76v5.072c-.448-.64-1.408-1.232-2.56-1.232-2.192 0-3.856 1.872-3.856 4.16zm6.56 0c0 1.44-.96 2.56-2.384 2.56s-2.384-1.12-2.384-2.56.96-2.56 2.384-2.56 2.384 1.12 2.384 2.56zm3.232 6.56h1.424c1.376-2.496 2.048-5.04 2.048-7.68s-.672-5.184-2.048-7.68h-1.424c1.36 2.64 1.936 5.056 1.936 7.68s-.576 5.04-1.936 7.68z"/></g><path fill="#f8f8f8" d="M0 665h960v55H0Z"/><g clip-path="url(#E)" class="B C"><path fill="none" stroke="#ced7e1" stroke-dasharray="5.333 4" stroke-width="1.333" d="M115.5 507.5h823m-823-107h823m-823-106h823m-823-107h823"/></g><g clip-path="url(#F)" class="B C"><path fill="none" stroke="#ced7e1" stroke-dasharray="4 3" d="M527.5 179.5v435m411-435v435"/></g><g clip-path="url(#G)" class="B C E G"><path fill="#2f5f98" d="M148.5 270.5h78v344h-78z"/></g><g clip-path="url(#H)" class="B C E G"><path fill="#2f5f98" d="M559.5 187.5h78v427h-78z"/></g><g clip-path="url(#I)" class="B C F"><path fill="#7cb9ab" stroke="#7cb9ab" d="M238 200h78v414h-78Zm411 346h78v68h-78Z"/></g><g clip-path="url(#J)" class="B C F"><path fill="#f59e0b" stroke="#f59e0b" d="M327 372h78v242h-78Zm412 33h77v209h-77Z"/></g><g clip-path="url(#K)" class="B C F"><path fill="#e6605d" stroke="#e6605d" d="M417 188h78v426h-78Zm411 160h78v266h-78Z"/></g><g clip-path="url(#L)" class="B C"><path fill="none" stroke="#0d0d0d" d="M115.5 614.5v-435"/></g><g clip-path="url(#M)" class="B C"><path fill="none" stroke="#111" d="M115.5 614.5h823"/></g><g fill="#111"><g clip-path="url(#N)"><path d="M182.395 257.055v-2.79c0-2.4-1.605-4.095-3.87-4.095-2.25 0-3.855 1.695-3.855 4.095v2.79c0 2.4 1.605 4.095 3.855 4.095 2.265 0 3.87-1.695 3.87-4.095zm-6.075 0v-2.79c0-1.545.915-2.475 2.205-2.475 1.305 0 2.22.93 2.22 2.475v2.79c0 1.56-.915 2.475-2.22 2.475-1.29 0-2.205-.915-2.205-2.475zm10.035 2.76c0-.705-.585-1.305-1.305-1.305-.705 0-1.29.6-1.29 1.305 0 .72.585 1.305 1.29 1.305.72 0 1.305-.585 1.305-1.305zm8.7-2.04c0-1.23-.555-2.16-1.515-2.685.63-.495.99-1.245.99-2.115 0-1.62-1.275-2.805-3.15-2.805-1.83 0-3.135 1.185-3.135 2.805 0 .87.36 1.62 1.005 2.115-.96.525-1.53 1.455-1.53 2.685 0 1.965 1.56 3.375 3.66 3.375 2.145 0 3.675-1.41 3.675-3.375zm-5.205-4.695c0-.795.63-1.41 1.53-1.41.945 0 1.545.615 1.545 1.41 0 .765-.6 1.41-1.545 1.41-.9 0-1.53-.645-1.53-1.41zm-.45 4.665c0-1.02.765-1.86 1.995-1.86 1.245 0 1.98.84 1.98 1.86 0 1.005-.735 1.86-1.995 1.86-1.215 0-1.98-.855-1.98-1.86zm8.55 3.255h1.65v-10.65h-2.535l-1.26 1.635h2.145z"/></g><g clip-path="url(#O)"><use xlink:href="#C"/></g><g clip-path="url(#P)"><path d="M270.758 186.055v-2.79c0-2.4-1.605-4.095-3.87-4.095-2.25 0-3.855 1.695-3.855 4.095v2.79c0 2.4 1.605 4.095 3.855 4.095 2.265 0 3.87-1.695 3.87-4.095zm-6.075 0v-2.79c0-1.545.915-2.475 2.205-2.475 1.305 0 2.22.93 2.22 2.475v2.79c0 1.56-.915 2.475-2.22 2.475-1.29 0-2.205-.915-2.205-2.475zm10.035 2.76c0-.705-.585-1.305-1.305-1.305-.705 0-1.29.6-1.29 1.305 0 .72.585 1.305 1.29 1.305.72 0 1.305-.585 1.305-1.305zm1.605 1.185h2.07l3.57-4.47c.72-.93 1.215-1.665 1.215-2.775 0-1.995-1.5-3.585-3.66-3.585s-3.66 1.59-3.66 3.6c0 1.995 1.635 3.42 3.33 3.42h.165zm1.215-7.245c0-1.095.84-1.995 1.98-1.995s1.98.9 1.98 1.995c0 1.11-.84 2.01-1.98 2.01s-1.98-.9-1.98-2.01zm8.835 7.245l4.995-9.24v-1.41h-7.2v1.605h5.235l-4.89 9.045z"/></g><g clip-path="url(#Q)"><path d="M683.296 532.055v-2.79c0-2.4-1.605-4.095-3.87-4.095-2.25 0-3.855 1.695-3.855 4.095v2.79c0 2.4 1.605 4.095 3.855 4.095 2.265 0 3.87-1.695 3.87-4.095zm-6.075 0v-2.79c0-1.545.915-2.475 2.205-2.475 1.305 0 2.22.93 2.22 2.475v2.79c0 1.56-.915 2.475-2.22 2.475-1.29 0-2.205-.915-2.205-2.475zm10.035 2.76c0-.705-.585-1.305-1.305-1.305-.705 0-1.29.6-1.29 1.305 0 .72.585 1.305 1.29 1.305.72 0 1.305-.585 1.305-1.305zm2.28 1.185h1.65v-10.65h-2.535l-1.26 1.635h2.145zm10.814-3.45c0-1.995-1.634-3.42-3.314-3.42h-.165l3-3.78h-2.07l-3.555 4.455c-.705.93-1.2 1.665-1.2 2.76 0 2.01 1.485 3.585 3.645 3.585 2.175 0 3.66-1.575 3.66-3.6zm-5.64.015c0-1.095.84-1.995 1.98-1.995s1.996.9 1.996 1.995c0 1.11-.855 1.995-1.995 1.995s-1.98-.885-1.98-1.995z"/></g><g clip-path="url(#R)"><path d="M360.33 359.055v-2.79c0-2.4-1.605-4.095-3.87-4.095-2.25 0-3.855 1.695-3.855 4.095v2.79c0 2.4 1.605 4.095 3.855 4.095 2.265 0 3.87-1.695 3.87-4.095zm-6.075 0v-2.79c0-1.545.915-2.475 2.205-2.475 1.305 0 2.22.93 2.22 2.475v2.79c0 1.56-.915 2.475-2.22 2.475-1.29 0-2.205-.915-2.205-2.475zm10.035 2.76c0-.705-.585-1.305-1.305-1.305-.705 0-1.29.6-1.29 1.305 0 .72.585 1.305 1.29 1.305.72 0 1.305-.585 1.305-1.305zm1.2-1.8c.06 1.77 1.74 3.135 3.675 3.135 2.145 0 3.66-1.44 3.66-3.435 0-2.115-1.335-3.675-3.36-3.675-.69 0-1.275.195-1.665.465l.495-2.55h3.78v-1.605h-5.07l-1.14 5.85 1.485.465c.345-.66.99-1.095 1.86-1.095 1.14 0 1.95.87 1.95 1.98 0 1.095-.795 1.98-1.995 1.98-.975 0-1.77-.645-1.98-1.515zM376.095 363l4.995-9.24v-1.41h-7.2v1.605h5.235l-4.89 9.045z"/></g><g clip-path="url(#S)"><path d="M770.809 391.055v-2.79c0-2.4-1.605-4.095-3.87-4.095-2.25 0-3.855 1.695-3.855 4.095v2.79c0 2.4 1.605 4.095 3.855 4.095 2.265 0 3.87-1.695 3.87-4.095zm-6.075 0v-2.79c0-1.545.915-2.475 2.205-2.475 1.305 0 2.22.93 2.22 2.475v2.79c0 1.56-.915 2.475-2.22 2.475-1.29 0-2.205-.915-2.205-2.475zm10.035 2.76c0-.705-.585-1.305-1.305-1.305-.705 0-1.29.6-1.29 1.305 0 .72.585 1.305 1.29 1.305.72 0 1.305-.585 1.305-1.305zm6.45 1.185h1.65v-2.67h1.425v-1.53h-1.425v-6.45h-1.47l-5.685 6.645v1.335h5.505zm0-4.2h-3.435l3.435-3.99zm4.485 4.2h2.07l3.57-4.47c.72-.93 1.215-1.665 1.215-2.775 0-1.995-1.5-3.585-3.66-3.585s-3.66 1.59-3.66 3.6c0 1.995 1.635 3.42 3.33 3.42h.165zm1.215-7.245c0-1.095.84-1.995 1.98-1.995s1.98.9 1.98 1.995c0 1.11-.84 2.01-1.98 2.01s-1.98-.9-1.98-2.01z"/></g><g clip-path="url(#T)"><path d="M444.405 178h1.65v-10.65h-2.535l-1.26 1.635h2.145Zm6.255-1.185c0-.705-.585-1.305-1.305-1.305-.705 0-1.29.6-1.29 1.305 0 .72.585 1.305 1.29 1.305.72 0 1.305-.585 1.305-1.305zm9.105-2.76v-2.79c0-2.4-1.605-4.095-3.87-4.095-2.25 0-3.855 1.695-3.855 4.095v2.79c0 2.4 1.605 4.095 3.855 4.095 2.265 0 3.87-1.695 3.87-4.095zm-6.075 0v-2.79c0-1.545.915-2.475 2.205-2.475 1.305 0 2.22.93 2.22 2.475v2.79c0 1.56-.915 2.475-2.22 2.475-1.29 0-2.205-.915-2.205-2.475zm15.465 0v-2.79c0-2.4-1.605-4.095-3.87-4.095-2.25 0-3.855 1.695-3.855 4.095v2.79c0 2.4 1.605 4.095 3.855 4.095 2.265 0 3.87-1.695 3.87-4.095zm-6.075 0v-2.79c0-1.545.915-2.475 2.205-2.475 1.305 0 2.22.93 2.22 2.475v2.79c0 1.56-.915 2.475-2.22 2.475-1.29 0-2.205-.915-2.205-2.475z"/></g><g clip-path="url(#U)"><path d="M860.822 335.055v-2.79c0-2.4-1.605-4.095-3.87-4.095-2.25 0-3.855 1.695-3.855 4.095v2.79c0 2.4 1.605 4.095 3.855 4.095 2.265 0 3.87-1.695 3.87-4.095zm-6.075 0v-2.79c0-1.545.915-2.475 2.205-2.475 1.305 0 2.22.93 2.22 2.475v2.79c0 1.56-.915 2.475-2.22 2.475-1.29 0-2.205-.915-2.205-2.475zm10.035 2.76c0-.705-.585-1.305-1.305-1.305-.705 0-1.29.6-1.29 1.305 0 .72.585 1.305 1.29 1.305.72 0 1.305-.585 1.305-1.305zm8.535-2.265c0-1.995-1.635-3.42-3.315-3.42h-.165l3-3.78h-2.07l-3.555 4.455c-.705.93-1.2 1.665-1.2 2.76 0 2.01 1.485 3.585 3.645 3.585 2.175 0 3.66-1.575 3.66-3.6zm-5.64.015c0-1.095.84-1.995 1.98-1.995s1.995.9 1.995 1.995c0 1.11-.855 1.995-1.995 1.995s-1.98-.885-1.98-1.995zm13.995 1.815h-4.875c.27-.96 1.455-1.56 2.415-2.28 1.56-1.125 2.355-2.04 2.355-3.735 0-2.115-1.56-3.195-3.345-3.195-2.025 0-3.6 1.38-3.6 3.435h1.665c.015-1.125.855-1.815 1.92-1.815 1.05 0 1.695.675 1.695 1.62 0 1.08-.69 1.68-1.785 2.475-1.56 1.155-3.495 2.175-3.495 4.515v.6h7.05z"/></g><g clip-path="url(#V)"><path d="M75.372 614.792v-2.976c0-2.56-1.712-4.368-4.128-4.368-2.4 0-4.112 1.808-4.112 4.368v2.976c0 2.56 1.712 4.368 4.112 4.368 2.416 0 4.128-1.808 4.128-4.368zm-6.48 0v-2.976c0-1.648.976-2.64 2.352-2.64 1.392 0 2.368.992 2.368 2.64v2.976c0 1.664-.976 2.64-2.368 2.64-1.376 0-2.352-.976-2.352-2.64zm10.704 2.944c0-.752-.624-1.392-1.392-1.392-.752 0-1.376.64-1.376 1.392a1.39 1.39 0 0 0 1.376 1.392c.768 0 1.392-.624 1.392-1.392zm9.712-2.944v-2.976c0-2.56-1.712-4.368-4.128-4.368-2.4 0-4.112 1.808-4.112 4.368v2.976c0 2.56 1.712 4.368 4.112 4.368 2.416 0 4.128-1.808 4.128-4.368zm-6.48 0v-2.976c0-1.648.976-2.64 2.352-2.64 1.392 0 2.368.992 2.368 2.64v2.976c0 1.664-.976 2.64-2.368 2.64-1.376 0-2.352-.976-2.352-2.64zm16.496 0v-2.976c0-2.56-1.712-4.368-4.128-4.368-2.4 0-4.112 1.808-4.112 4.368v2.976c0 2.56 1.712 4.368 4.112 4.368 2.416 0 4.128-1.808 4.128-4.368zm-6.48 0v-2.976c0-1.648.976-2.64 2.352-2.64 1.392 0 2.368.992 2.368 2.64v2.976c0 1.664-.976 2.64-2.368 2.64-1.376 0-2.352-.976-2.352-2.64z"/></g><g clip-path="url(#W)"><path d="M77.352 507.792v-2.976c0-2.56-1.712-4.368-4.128-4.368-2.4 0-4.112 1.808-4.112 4.368v2.976c0 2.56 1.712 4.368 4.112 4.368 2.416 0 4.128-1.808 4.128-4.368zm-6.48 0v-2.976c0-1.648.976-2.64 2.352-2.64 1.392 0 2.368.992 2.368 2.64v2.976c0 1.664-.976 2.64-2.368 2.64-1.376 0-2.352-.976-2.352-2.64zm10.704 2.944c0-.752-.624-1.392-1.392-1.392-.752 0-1.376.64-1.376 1.392a1.39 1.39 0 0 0 1.376 1.392c.768 0 1.392-.624 1.392-1.392zm8.992-.464h-5.2c.288-1.024 1.552-1.664 2.576-2.432 1.664-1.2 2.512-2.176 2.512-3.984 0-2.256-1.664-3.408-3.568-3.408-2.16 0-3.84 1.472-3.84 3.664h1.776c.016-1.2.912-1.936 2.048-1.936 1.12 0 1.808.72 1.808 1.728 0 1.152-.736 1.792-1.904 2.64-1.664 1.232-3.728 2.32-3.728 4.816v.64h7.52zm1.328-1.456c.064 1.888 1.856 3.344 3.92 3.344 2.288 0 3.904-1.536 3.904-3.664 0-2.256-1.424-3.92-3.584-3.92-.736 0-1.36.208-1.776.496l.528-2.72h4.032v-1.712h-5.408l-1.216 6.24 1.584.496c.368-.704 1.056-1.168 1.984-1.168 1.216 0 2.08.928 2.08 2.112 0 1.168-.848 2.112-2.128 2.112-1.04 0-1.888-.688-2.112-1.616z"/></g><g clip-path="url(#X)"><path d="M76.379 401.792v-2.976c0-2.56-1.712-4.368-4.128-4.368-2.4 0-4.112 1.808-4.112 4.368v2.976c0 2.56 1.712 4.368 4.112 4.368 2.416 0 4.128-1.808 4.128-4.368zm-6.48 0v-2.976c0-1.648.976-2.64 2.352-2.64 1.392 0 2.368.992 2.368 2.64v2.976c0 1.664-.976 2.64-2.368 2.64-1.376 0-2.352-.976-2.352-2.64zm10.704 2.944c0-.752-.624-1.392-1.392-1.392-.752 0-1.376.64-1.376 1.392a1.39 1.39 0 0 0 1.376 1.392c.768 0 1.392-.624 1.392-1.392zm1.28-1.92c.064 1.888 1.856 3.344 3.92 3.344 2.288 0 3.904-1.536 3.904-3.664 0-2.256-1.424-3.92-3.584-3.92-.736 0-1.36.208-1.776.496l.528-2.72h4.032v-1.712h-5.408l-1.216 6.24 1.584.496c.368-.704 1.056-1.168 1.984-1.168 1.216 0 2.08.928 2.08 2.112 0 1.168-.848 2.112-2.128 2.112-1.04 0-1.888-.688-2.112-1.616zm17.6-1.024v-2.976c0-2.56-1.712-4.368-4.128-4.368-2.4 0-4.112 1.808-4.112 4.368v2.976c0 2.56 1.712 4.368 4.112 4.368 2.416 0 4.128-1.808 4.128-4.368zm-6.48 0v-2.976c0-1.648.976-2.64 2.352-2.64 1.392 0 2.368.992 2.368 2.64v2.976c0 1.664-.976 2.64-2.368 2.64-1.376 0-2.352-.976-2.352-2.64z"/></g><g clip-path="url(#Y)"><path d="M77.992 294.792v-2.976c0-2.56-1.712-4.368-4.128-4.368-2.4 0-4.112 1.808-4.112 4.368v2.976c0 2.56 1.712 4.368 4.112 4.368 2.416 0 4.128-1.808 4.128-4.368zm-6.48 0v-2.976c0-1.648.976-2.64 2.352-2.64 1.392 0 2.368.992 2.368 2.64v2.976c0 1.664-.976 2.64-2.368 2.64-1.376 0-2.352-.976-2.352-2.64zm10.704 2.944c0-.752-.624-1.392-1.392-1.392-.752 0-1.376.64-1.376 1.392a1.39 1.39 0 0 0 1.376 1.392c.768 0 1.392-.624 1.392-1.392zM85.8 299l5.328-9.856v-1.504h-7.68v1.712h5.584L83.816 299Zm5.904-3.184c.064 1.888 1.856 3.344 3.92 3.344 2.288 0 3.904-1.536 3.904-3.664 0-2.256-1.424-3.92-3.584-3.92-.736 0-1.36.208-1.776.496l.528-2.72h4.032v-1.712H93.32l-1.216 6.24 1.584.496c.368-.704 1.056-1.168 1.984-1.168 1.216 0 2.08.928 2.08 2.112 0 1.168-.848 2.112-2.128 2.112-1.04 0-1.888-.688-2.112-1.616z"/></g><g clip-path="url(#Z)"><path d="M73.078 193h1.76v-11.36h-2.704l-1.344 1.744h2.288zm6.672-1.264c0-.752-.624-1.392-1.392-1.392-.752 0-1.376.64-1.376 1.392a1.39 1.39 0 0 0 1.376 1.392c.768 0 1.392-.624 1.392-1.392zm9.712-2.944v-2.976c0-2.56-1.712-4.368-4.128-4.368-2.4 0-4.112 1.808-4.112 4.368v2.976c0 2.56 1.712 4.368 4.112 4.368 2.416 0 4.128-1.808 4.128-4.368zm-6.48 0v-2.976c0-1.648.976-2.64 2.352-2.64 1.392 0 2.368.992 2.368 2.64v2.976c0 1.664-.976 2.64-2.368 2.64-1.376 0-2.352-.976-2.352-2.64zm16.496 0v-2.976c0-2.56-1.712-4.368-4.128-4.368-2.4 0-4.112 1.808-4.112 4.368v2.976c0 2.56 1.712 4.368 4.112 4.368 2.416 0 4.128-1.808 4.128-4.368zm-6.48 0v-2.976c0-1.648.976-2.64 2.352-2.64 1.392 0 2.368.992 2.368 2.64v2.976c0 1.664-.976 2.64-2.368 2.64-1.376 0-2.352-.976-2.352-2.64z"/></g><g clip-path="url(#a)"><path d="M300.67 629.64h-3.616V641h1.872v-3.936h1.744c2.336 0 3.936-1.616 3.936-3.712s-1.6-3.712-3.936-3.712zm-.016 5.664h-1.728V631.4h1.728c1.328 0 2.112.848 2.112 1.952s-.784 1.952-2.112 1.952zM306.19 641h1.76v-3.936c0-1.712.896-2.624 2.064-2.624 1.024 0 1.664.768 1.664 2.032V641h1.76v-4.816c0-2.032-1.2-3.344-3.056-3.344-1.04 0-1.952.448-2.432 1.248V629h-1.76zm17.312-4c0-2.32-1.824-4.16-4.192-4.16s-4.192 1.84-4.192 4.16 1.824 4.16 4.192 4.16 4.192-1.84 4.192-4.16zm-6.608 0c0-1.424.992-2.528 2.416-2.528 1.408 0 2.4 1.104 2.4 2.528s-.992 2.528-2.4 2.528c-1.424 0-2.416-1.104-2.416-2.528zm13.008 3.904v-1.568c-.256.096-.608.16-.944.16-.912 0-1.344-.368-1.344-1.36v-3.568h2.288V633h-2.288v-2.224h-1.76V633h-1.664v1.568h1.664v3.856c0 1.808 1.2 2.656 2.736 2.656.544 0 .96-.064 1.312-.176zm9.36-3.904c0-2.32-1.824-4.16-4.192-4.16s-4.192 1.84-4.192 4.16 1.824 4.16 4.192 4.16 4.192-1.84 4.192-4.16zm-6.608 0c0-1.424.992-2.528 2.416-2.528 1.408 0 2.4 1.104 2.4 2.528s-.992 2.528-2.4 2.528c-1.424 0-2.416-1.104-2.416-2.528zm13.792 1.68c0-1.312-.832-2.016-2.24-2.432l-.816-.24c-.784-.224-.96-.56-.96-.944 0-.48.544-.752 1.072-.752.656 0 1.168.32 1.52.816l1.216-.928c-.56-.88-1.504-1.36-2.704-1.36-1.6 0-2.848.864-2.864 2.288-.016 1.184.704 2.064 2.096 2.448l.704.192c.96.288 1.232.56 1.232 1.024 0 .56-.528.848-1.152.848-.816 0-1.6-.4-1.92-1.104l-1.296.928c.576 1.136 1.792 1.696 3.216 1.696 1.648 0 2.896-.944 2.896-2.48z"/></g><g clip-path="url(#b)"><path d="M690.357 641h1.872v-9.568h3.312v-1.792h-8.48v1.792h3.296zm4.656-4c0 2.432 1.744 4.16 4.176 4.16 1.68 0 2.928-.72 3.648-1.856l-1.344-.96c-.416.704-1.168 1.216-2.288 1.216-1.328 0-2.384-.864-2.464-2.176h6.288l.016-.576c0-2.576-1.76-3.968-3.856-3.968-2.432 0-4.176 1.808-4.176 4.16zm4.112-2.672c1.024 0 1.952.624 2.144 1.776h-4.448c.24-1.184 1.28-1.776 2.304-1.776zm4.288 6.672h2.144l2.16-2.704 2.16 2.704h2.128l-3.184-3.984 3.008-4.016h-2.112l-2.016 2.688-2.016-2.688h-2.096l3.008 4.016zm14.64-.096v-1.568c-.256.096-.608.16-.944.16-.912 0-1.344-.368-1.344-1.36v-3.568h2.288V633h-2.288v-2.224h-1.76V633h-1.664v1.568h1.664v3.856c0 1.808 1.2 2.656 2.736 2.656.544 0 .96-.064 1.312-.176zm7.472-10.832c0-.64-.512-1.168-1.168-1.168a1.19 1.19 0 0 0-1.184 1.168c0 .656.544 1.184 1.184 1.184.656 0 1.168-.528 1.168-1.184zM723.477 641h1.76v-8h-1.76zm4.128 0h1.76v-3.936c0-1.68.784-2.624 1.92-2.624.96 0 1.424.816 1.424 2.064V641h1.76v-3.936c0-1.68.768-2.624 1.904-2.624.96 0 1.424.816 1.424 2.064V641h1.76v-4.784c0-2.048-1.072-3.376-2.88-3.376-1.056 0-2.08.56-2.56 1.584-.432-.992-1.296-1.584-2.48-1.584-1.024 0-1.824.496-2.272 1.248V633h-1.76zm13.632-4c0 2.288 1.664 4.16 3.856 4.16 1.152 0 2.112-.592 2.56-1.232V641h1.76v-8h-1.76v1.072c-.448-.64-1.408-1.232-2.56-1.232-2.192 0-3.856 1.872-3.856 4.16zm6.56 0c0 1.44-.96 2.56-2.384 2.56s-2.384-1.12-2.384-2.56.96-2.56 2.384-2.56 2.384 1.12 2.384 2.56zm11.6 3.456V633h-1.76v1.072c-.48-.704-1.456-1.232-2.56-1.232-2.16 0-3.84 1.792-3.84 4.048 0 2.272 1.68 4.064 3.84 4.064 1.104 0 2.08-.544 2.56-1.248v.736c0 1.616-1.088 2.496-2.416 2.496a3.517 3.517 0 0 1-2.656-1.168l-1.072 1.264c.784.88 2.176 1.472 3.744 1.472 2.368 0 4.16-1.264 4.16-4.048zm-6.384-3.568c0-1.424 1.024-2.448 2.384-2.448s2.384 1.024 2.384 2.448-1.024 2.448-2.384 2.448-2.384-1.024-2.384-2.448zm8.192.112c0 2.432 1.744 4.16 4.176 4.16 1.68 0 2.928-.72 3.648-1.856l-1.344-.96c-.416.704-1.168 1.216-2.288 1.216-1.328 0-2.384-.864-2.464-2.176h6.288l.016-.576c0-2.576-1.76-3.968-3.856-3.968-2.432 0-4.176 1.808-4.176 4.16zm4.112-2.672c1.024 0 1.952.624 2.144 1.776h-4.448c.24-1.184 1.28-1.776 2.304-1.776zm11.168 4.352c0-1.312-.832-2.016-2.24-2.432l-.816-.24c-.784-.224-.96-.56-.96-.944 0-.48.544-.752 1.072-.752.656 0 1.168.32 1.52.816l1.216-.928c-.56-.88-1.504-1.36-2.704-1.36-1.6 0-2.848.864-2.864 2.288-.016 1.184.704 2.064 2.096 2.448l.704.192c.96.288 1.232.56 1.232 1.024 0 .56-.528.848-1.152.848-.816 0-1.6-.4-1.92-1.104l-1.296.928c.576 1.136 1.792 1.696 3.216 1.696 1.648 0 2.896-.944 2.896-2.48z"/></g></g><g fill="#68788e" clip-path="url(#c)"><path d="M41.75 484.292H28.97v2.124h9.162l-9.162 7.182v1.836h12.78v-2.106h-9.198l9.198-7.2zm-4.5-11.502c-2.61 0-4.68 2.052-4.68 4.716s2.07 4.716 4.68 4.716 4.68-2.052 4.68-4.716-2.07-4.716-4.68-4.716zm0 7.434c-1.602 0-2.844-1.116-2.844-2.718 0-1.584 1.242-2.7 2.844-2.7s2.844 1.116 2.844 2.7c0 1.602-1.242 2.718-2.844 2.718zm4.5-9.432v-1.98h-4.392c-1.8 0-2.754-1.026-2.754-2.16 0-.36.054-.648.162-.99h-2.034c-.054.27-.072.522-.072.774 0 1.026.666 2.034 1.692 2.376H32.75v1.98zm0-6.84v-1.98h-4.428c-1.89 0-2.952-.882-2.952-2.16 0-1.08.918-1.602 2.322-1.602h5.058v-1.98h-4.428c-1.89 0-2.952-.864-2.952-2.142 0-1.08.918-1.602 2.322-1.602h5.058v-1.98h-5.382c-2.304 0-3.798 1.206-3.798 3.24 0 1.188.63 2.34 1.782 2.88-1.116.486-1.782 1.458-1.782 2.79 0 1.152.558 2.052 1.404 2.556H32.75v1.98zm-4.5-15.336c2.574 0 4.68-1.872 4.68-4.338 0-1.296-.666-2.376-1.386-2.88h1.206v-1.98h-9v1.98h1.206c-.72.504-1.386 1.584-1.386 2.88 0 2.466 2.106 4.338 4.68 4.338zm0-7.38c1.62 0 2.88 1.08 2.88 2.682s-1.26 2.682-2.88 2.682-2.88-1.08-2.88-2.682 1.26-2.682 2.88-2.682zm4.5-4.5v-1.98h-13.5v1.98zm-12.294-6.948a1.31 1.31 0 0 0-1.314 1.314c0 .72.594 1.332 1.314 1.332a1.34 1.34 0 0 0 1.332-1.332c0-.738-.594-1.314-1.332-1.314zm12.294 2.304v-1.98h-9v1.98zm0-4.032v-7.416h-1.8v4.842l-5.616-4.698H32.75v7.2h1.8v-4.644l5.634 4.716zm-4.5-8.658c2.736 0 4.68-1.962 4.68-4.698 0-1.89-.81-3.294-2.088-4.104l-1.08 1.512c.792.468 1.368 1.314 1.368 2.574 0 1.494-.972 2.682-2.448 2.772v-7.074l-.648-.018c-2.898 0-4.464 1.98-4.464 4.338 0 2.736 2.034 4.698 4.68 4.698zm-3.006-4.626c0-1.152.702-2.196 1.998-2.412v5.004c-1.332-.27-1.998-1.44-1.998-2.592zm3.006-5.796c2.574 0 4.68-1.872 4.68-4.338 0-1.296-.666-2.376-1.386-2.88h1.206v-1.98h-13.5v1.98h5.706c-.72.504-1.386 1.584-1.386 2.88 0 2.466 2.106 4.338 4.68 4.338zm0-7.38c1.62 0 2.88 1.08 2.88 2.682s-1.26 2.682-2.88 2.682-2.88-1.08-2.88-2.682 1.26-2.682 2.88-2.682zm4.5-8.73v-1.98h-4.392c-1.8 0-2.754-1.026-2.754-2.16 0-.36.054-.648.162-.99h-2.034c-.054.27-.072.522-.072.774 0 1.026.666 2.034 1.692 2.376H32.75v1.98zm-4.5-5.886c2.736 0 4.68-1.962 4.68-4.698 0-1.89-.81-3.294-2.088-4.104l-1.08 1.512c.792.468 1.368 1.314 1.368 2.574 0 1.494-.972 2.682-2.448 2.772v-7.074l-.648-.018c-2.898 0-4.464 1.98-4.464 4.338 0 2.736 2.034 4.698 4.68 4.698zm-3.006-4.626c0-1.152.702-2.196 1.998-2.412v5.004c-1.332-.27-1.998-1.44-1.998-2.592zm7.506-6.444v-1.98h-13.5v1.98zm-4.5-3.996c2.574 0 4.68-1.872 4.68-4.338 0-1.296-.666-2.376-1.386-2.88h1.206v-1.98h-9v1.98h1.206c-.72.504-1.386 1.584-1.386 2.88 0 2.466 2.106 4.338 4.68 4.338zm0-7.38c1.62 0 2.88 1.08 2.88 2.682s-1.26 2.682-2.88 2.682-2.88-1.08-2.88-2.682 1.26-2.682 2.88-2.682zm4.392-9.882h-1.764c.108.288.18.684.18 1.062 0 1.026-.414 1.512-1.53 1.512h-4.014v-2.574H32.75v2.574h-2.502v1.98h2.502v1.872h1.764v-1.872h4.338c2.034 0 2.988-1.35 2.988-3.078 0-.612-.072-1.08-.198-1.476zm-12.186-4.176a1.31 1.31 0 0 0-1.314 1.314c0 .72.594 1.332 1.314 1.332a1.34 1.34 0 0 0 1.332-1.332c0-.738-.594-1.314-1.332-1.314zm12.294 2.304v-1.98h-9v1.98zm0-7.452v-1.746l-9-4.086v2.214l6.3 2.754-6.3 2.736v2.196zm-4.5-6.354c2.736 0 4.68-1.962 4.68-4.698 0-1.89-.81-3.294-2.088-4.104l-1.08 1.512c.792.468 1.368 1.314 1.368 2.574 0 1.494-.972 2.682-2.448 2.772v-7.074l-.648-.018c-2.898 0-4.464 1.98-4.464 4.338 0 2.736 2.034 4.698 4.68 4.698zm-3.006-4.626c0-1.152.702-2.196 1.998-2.412v5.004c-1.332-.27-1.998-1.44-1.998-2.592zm4.896-16.794c-1.476 0-2.268.936-2.736 2.52l-.27.918c-.252.882-.63 1.08-1.062 1.08-.54 0-.846-.612-.846-1.206 0-.738.36-1.314.918-1.71l-1.044-1.368c-.99.63-1.53 1.692-1.53 3.042 0 1.8.972 3.204 2.574 3.222 1.332.018 2.322-.792 2.754-2.358l.216-.792c.324-1.08.63-1.386 1.152-1.386.63 0 .954.594.954 1.296 0 .918-.45 1.8-1.242 2.16l1.044 1.458c1.278-.648 1.908-2.016 1.908-3.618 0-1.854-1.062-3.258-2.79-3.258zm-9.684-4.356a1.31 1.31 0 0 0-1.314 1.314c0 .72.594 1.332 1.314 1.332a1.34 1.34 0 0 0 1.332-1.332c0-.738-.594-1.314-1.332-1.314zm12.294 2.304v-1.98h-9v1.98zm0-4.032v-7.416h-1.8v4.842l-5.616-4.698H32.75v7.2h1.8v-4.644l5.634 4.716zm-4.5-8.658c2.736 0 4.68-1.962 4.68-4.698 0-1.89-.81-3.294-2.088-4.104l-1.08 1.512c.792.468 1.368 1.314 1.368 2.574 0 1.494-.972 2.682-2.448 2.772v-7.074l-.648-.018c-2.898 0-4.464 1.98-4.464 4.338 0 2.736 2.034 4.698 4.68 4.698zm-3.006-4.626c0-1.152.702-2.196 1.998-2.412v5.004c-1.332-.27-1.998-1.44-1.998-2.592z"/></g><g clip-path="url(#d)" class="B C D E"><path fill="#4472c4" d="M393 137h9v9h-9z"/></g><g clip-path="url(#e)"><g fill="#111" clip-path="url(#f)"><path d="M420.925 143.88v-8.24h-1.872v8.08c0 1.232-.752 1.728-1.6 1.728-.864 0-1.632-.544-1.632-1.6h-1.856c0 2.24 1.616 3.344 3.488 3.344 1.824 0 3.472-.96 3.472-3.312zm6.304-8.24h-3.616V147h1.872v-3.936h1.744c2.336 0 3.936-1.616 3.936-3.712s-1.6-3.712-3.936-3.712zm-.016 5.664h-1.728V137.4h1.728c1.328 0 2.112.848 2.112 1.952s-.784 1.952-2.112 1.952zm5.808 5.696h6.832v-1.792h-4.96v-3.072h4v-1.792h-4v-2.912h4.96v-1.792h-6.832zm18.639-1.44v-5.2h-4.671v1.76h2.848v2.528c-.64.528-1.696.736-2.72.736-2.592 0-4.24-1.76-4.24-4.064 0-2.256 1.68-4.064 4.064-4.064 1.376 0 2.384.496 3.12 1.232l1.28-1.328c-1.056-1.088-2.544-1.712-4.4-1.712-3.424 0-5.952 2.592-5.952 5.872 0 3.312 2.576 5.872 6.144 5.872 1.744 0 3.504-.528 4.528-1.632z"/></g></g><g clip-path="url(#g)" class="B C D"><path fill="#7cb9ab" stroke="#7cb9ab" d="M466 137h9v9h-9z"/></g><g clip-path="url(#h)"><g fill="#111" clip-path="url(#i)"><path d="M491.608 135.64h-3.616V147h1.872v-3.936h1.744c2.336 0 3.936-1.616 3.936-3.712s-1.6-3.712-3.936-3.712zm-.016 5.664h-1.728V137.4h1.728c1.328 0 2.112.848 2.112 1.952s-.784 1.952-2.112 1.952zM507.304 147v-11.36h-1.888v8.144l-6.384-8.144H497.4V147h1.872v-8.176l6.4 8.176zm12.736-1.44v-5.2h-4.672v1.76h2.848v2.528c-.64.528-1.696.736-2.72.736-2.592 0-4.24-1.76-4.24-4.064 0-2.256 1.68-4.064 4.064-4.064 1.376 0 2.384.496 3.12 1.232l1.28-1.328c-1.056-1.088-2.544-1.712-4.4-1.712-3.424 0-5.952 2.592-5.952 5.872 0 3.312 2.576 5.872 6.144 5.872 1.744 0 3.504-.528 4.528-1.632z"/></g></g><g clip-path="url(#j)" class="B C D"><path fill="#f59e0b" stroke="#f59e0b" d="M534 137h9v9h-9z"/></g><g clip-path="url(#k)"><g fill="#111" clip-path="url(#l)"><path d="M564.957 147h1.728l2.944-11.36h-1.984l-2.08 8.256-3.248-8.448-3.248 8.448-2.08-8.256h-1.968l2.928 11.36h1.728l2.64-6.944zm5.04-4c0 2.432 1.744 4.16 4.176 4.16 1.68 0 2.928-.72 3.648-1.856l-1.344-.96c-.416.704-1.168 1.216-2.288 1.216-1.328 0-2.384-.864-2.464-2.176h6.288l.016-.576c0-2.576-1.76-3.968-3.856-3.968-2.432 0-4.176 1.808-4.176 4.16zm4.112-2.672c1.024 0 1.952.624 2.144 1.776h-4.448c.24-1.184 1.28-1.776 2.304-1.776zm7.488 5.6c.448.64 1.424 1.232 2.576 1.232 2.192 0 3.856-1.872 3.856-4.16s-1.664-4.16-3.856-4.16c-1.152 0-2.128.592-2.576 1.232V135h-1.76v12h1.76zm4.64-2.928c0 1.44-.976 2.56-2.384 2.56-1.424 0-2.4-1.12-2.4-2.56s.976-2.56 2.4-2.56c1.408 0 2.384 1.12 2.384 2.56zm7.312-7.36h-3.616V147h1.872v-3.936h1.744c2.336 0 3.936-1.616 3.936-3.712s-1.6-3.712-3.936-3.712zm-.016 5.664h-1.728V137.4h1.728c1.328 0 2.112.848 2.112 1.952s-.784 1.952-2.112 1.952z"/></g></g><g clip-path="url(#m)" class="B C D"><path fill="#e6605d" stroke="#e6605d" d="M612 137h9v9h-9z"/></g><g clip-path="url(#n)"><g fill="#111" clip-path="url(#o)"><path d="M632.413 147h1.936l1.28-2.976h5.088l1.296 2.976h1.952l-4.96-11.36h-1.632Zm3.936-4.64 1.824-4.208 1.824 4.208Zm11.424 4.64h1.632l4.768-11.36h-2.064l-3.52 8.496-3.536-8.496h-2.048zm7.888 0h1.872v-11.36h-1.872zm4.656 0h1.872v-4.864h3.84v-1.776h-3.84v-2.928h4.88v-1.792h-6.752z"/></g></g><path fill="#335ab9" d="M0 0h961v12H0Z"/><path fill="#64748b" d="M32.195 698.144c.688 1.216 2.208 2.048 4.048 2.048 2.224 0 3.792-1.296 3.792-3.28.016-1.696-.992-2.704-2.672-3.328l-1.152-.432c-1.168-.432-1.728-.8-1.728-1.632 0-.816.832-1.312 1.792-1.312.88 0 1.584.384 2.16 1.056L39.73 690c-.832-.992-2.032-1.552-3.44-1.552-2.112 0-3.696 1.216-3.696 3.2 0 1.552.88 2.544 2.688 3.2l1.248.448c1.088.4 1.616.928 1.616 1.728 0 .848-.784 1.408-1.84 1.408-1.104 0-2.048-.544-2.64-1.456zM49.667 696c0-2.32-1.824-4.16-4.192-4.16s-4.192 1.84-4.192 4.16 1.824 4.16 4.192 4.16 4.192-1.84 4.192-4.16zm-6.608 0c0-1.424.992-2.528 2.416-2.528 1.408 0 2.4 1.104 2.4 2.528s-.992 2.528-2.4 2.528c-1.424 0-2.416-1.104-2.416-2.528zm8.271.784c0 2.048 1.137 3.376 2.977 3.376 1.024 0 1.872-.448 2.336-1.248V700h1.76v-8h-1.76v3.936c0 1.712-.816 2.624-1.952 2.624-1.024 0-1.6-.784-1.6-2.064V692h-1.76zM60.77 700h1.76v-3.904c0-1.6.913-2.448 1.92-2.448.32 0 .577.048.88.144v-1.808a3.443 3.443 0 0 0-.687-.064c-.912 0-1.808.592-2.112 1.504V692h-1.76zm13.169-2.048l-1.536-.832c-.384.816-1.168 1.408-2.192 1.408-1.424 0-2.432-1.104-2.432-2.528s1.008-2.528 2.432-2.528c1.024 0 1.808.592 2.192 1.408l1.536-.832c-.688-1.328-2.08-2.208-3.728-2.208-2.4 0-4.224 1.792-4.224 4.16s1.824 4.16 4.224 4.16c1.648 0 3.04-.88 3.728-2.208zM74.995 696c0 2.432 1.744 4.16 4.176 4.16 1.68 0 2.928-.72 3.648-1.856l-1.344-.96c-.416.704-1.168 1.216-2.288 1.216-1.328 0-2.384-.864-2.464-2.176h6.288l.016-.576c0-2.576-1.76-3.968-3.856-3.968-2.432 0-4.176 1.808-4.176 4.16zm4.112-2.672c1.024 0 1.952.624 2.144 1.776h-4.448c.24-1.184 1.28-1.776 2.304-1.776zm8.223-.128c0-.752-.623-1.392-1.391-1.392-.752 0-1.376.64-1.376 1.392a1.39 1.39 0 0 0 1.376 1.392c.768 0 1.392-.624 1.392-1.392zm0 5.536c0-.752-.623-1.392-1.391-1.392-.752 0-1.376.64-1.376 1.392a1.39 1.39 0 0 0 1.376 1.392c.768 0 1.392-.624 1.392-1.392zm9.665-10.096h-3.616V700h1.872v-3.936h1.744c2.336 0 3.936-1.616 3.936-3.712s-1.6-3.712-3.936-3.712zm-.016 5.664H95.25V690.4h1.728c1.328 0 2.112.848 2.112 1.952s-.784 1.952-2.112 1.952zm5.536 5.696h1.76v-3.936c0-1.712.896-2.624 2.064-2.624 1.024 0 1.664.768 1.664 2.032V700h1.76v-4.816c0-2.032-1.2-3.344-3.056-3.344-1.04 0-1.952.448-2.432 1.248V688h-1.76zm17.312-4c0-2.32-1.824-4.16-4.192-4.16s-4.192 1.84-4.192 4.16 1.824 4.16 4.192 4.16 4.192-1.84 4.192-4.16zm-6.608 0c0-1.424.992-2.528 2.416-2.528 1.408 0 2.4 1.104 2.4 2.528s-.992 2.528-2.4 2.528c-1.424 0-2.416-1.104-2.416-2.528zm13.008 3.904v-1.568c-.256.096-.608.16-.944.16-.912 0-1.344-.368-1.344-1.36v-3.568h2.288V692h-2.288v-2.224h-1.76V692h-1.664v1.568h1.664v3.856c0 1.808 1.2 2.656 2.736 2.656.544 0 .96-.064 1.312-.176zm1.552-3.12c0 2.048 1.136 3.376 2.976 3.376 1.024 0 1.872-.448 2.336-1.248V700h1.76v-8h-1.76v3.936c0 1.712-.816 2.624-1.952 2.624-1.024 0-1.6-.784-1.6-2.064V692h-1.76zm14.224 3.12v-1.568c-.256.096-.608.16-.944.16-.912 0-1.344-.368-1.344-1.36v-3.568h2.288V692h-2.288v-2.224h-1.76V692h-1.664v1.568h1.664v3.856c0 1.808 1.2 2.656 2.736 2.656.544 0 .96-.064 1.312-.176zm9.36-3.904c0-2.32-1.824-4.16-4.192-4.16s-4.192 1.84-4.192 4.16 1.824 4.16 4.192 4.16 4.192-1.84 4.192-4.16zm-6.608 0c0-1.424.992-2.528 2.416-2.528 1.408 0 2.4 1.104 2.4 2.528s-.992 2.528-2.4 2.528c-1.424 0-2.416-1.104-2.416-2.528zm8.384 4h1.76v-3.904c0-1.6.912-2.448 1.92-2.448a2.74 2.74 0 0 1 .88.144v-1.808a3.443 3.443 0 0 0-.688-.064c-.912 0-1.808.592-2.112 1.504V692h-1.76zm8.128-10.928c0-.64-.512-1.168-1.168-1.168a1.19 1.19 0 0 0-1.184 1.168c0 .656.544 1.184 1.184 1.184.656 0 1.168-.528 1.168-1.184zM159.219 700h1.76v-8h-1.76zm3.551-4c0 2.288 1.665 4.16 3.857 4.16 1.152 0 2.112-.592 2.56-1.232V700h1.76v-8h-1.76v1.072c-.448-.64-1.408-1.232-2.56-1.232-2.192 0-3.856 1.872-3.856 4.16zm6.56 0c0 1.44-.96 2.56-2.383 2.56s-2.384-1.12-2.384-2.56.96-2.56 2.384-2.56 2.384 1.12 2.384 2.56zm4 4h1.76v-12h-1.76zm6.449-1.264c0-.752-.624-1.392-1.392-1.392-.752 0-1.376.64-1.376 1.392a1.39 1.39 0 0 0 1.376 1.392c.768 0 1.392-.624 1.392-1.392zm9.2-.784l-1.536-.832c-.384.816-1.168 1.408-2.192 1.408-1.424 0-2.432-1.104-2.432-2.528s1.008-2.528 2.432-2.528c1.024 0 1.808.592 2.192 1.408l1.536-.832c-.688-1.328-2.08-2.208-3.728-2.208-2.4 0-4.224 1.792-4.224 4.16s1.824 4.16 4.224 4.16c1.648 0 3.04-.88 3.728-2.208zm9.424-1.952c0-2.32-1.824-4.16-4.192-4.16s-4.193 1.84-4.193 4.16 1.824 4.16 4.192 4.16 4.192-1.84 4.192-4.16zm-6.608 0c0-1.424.992-2.528 2.416-2.528 1.407 0 2.4 1.104 2.4 2.528s-.992 2.528-2.4 2.528c-1.425 0-2.417-1.104-2.417-2.528zm8.383 4h1.76v-3.936c0-1.68.784-2.624 1.92-2.624.96 0 1.424.816 1.424 2.064V700h1.76v-3.936c0-1.68.768-2.624 1.904-2.624.96 0 1.424.816 1.424 2.064V700h1.76v-4.784c0-2.048-1.072-3.376-2.88-3.376-1.056 0-2.08.56-2.56 1.584-.432-.992-1.296-1.584-2.48-1.584-1.024 0-1.824.496-2.272 1.248V692h-1.76zm16.272-.4c.16-.256.272-.544.272-.864a1.39 1.39 0 0 0-1.376-1.392 1.39 1.39 0 0 0-1.376 1.392 1.41 1.41 0 0 0 .784 1.264l-1.104 2.352h1.088zm7.744-.672c.448.64 1.424 1.232 2.576 1.232 2.192 0 3.856-1.872 3.856-4.16s-1.664-4.16-3.856-4.16c-1.152 0-2.128.592-2.576 1.232V688h-1.76v12h1.76zm4.64-2.928c0 1.44-.976 2.56-2.384 2.56-1.424 0-2.4-1.12-2.4-2.56s.976-2.56 2.4-2.56c1.408 0 2.384 1.12 2.384 2.56zm5.952 7.344L239.922 692h-1.952l-2.448 5.664-2.464-5.664h-1.936l3.44 7.568-1.712 3.776zm15.68-6.336l3.792-5.152V700h1.888v-11.36h-1.712l-3.984 5.376-3.968-5.376h-1.712V700h1.872v-8.16zm7.52-1.008c0 2.288 1.664 4.16 3.856 4.16 1.152 0 2.112-.592 2.56-1.232V700h1.76v-8h-1.76v1.072c-.448-.64-1.408-1.232-2.56-1.232-2.192 0-3.856 1.872-3.856 4.16zm6.56 0c0 1.44-.96 2.56-2.384 2.56s-2.384-1.12-2.384-2.56.96-2.56 2.384-2.56 2.384 1.12 2.384 2.56zm8.784 3.904v-1.568c-.256.096-.608.16-.944.16-.912 0-1.344-.368-1.344-1.36v-3.568h2.288V692h-2.288v-2.224h-1.76V692h-1.664v1.568h1.664v3.856c0 1.808 1.2 2.656 2.736 2.656.544 0 .96-.064 1.312-.176zm3.712-10.832c0-.64-.512-1.168-1.168-1.168a1.19 1.19 0 0 0-1.184 1.168c0 .656.544 1.184 1.184 1.184.656 0 1.168-.528 1.168-1.184zM274.994 700h1.76v-8h-1.76zm11.504-2.048l-1.536-.832c-.384.816-1.168 1.408-2.192 1.408-1.424 0-2.432-1.104-2.432-2.528s1.008-2.528 2.432-2.528c1.024 0 1.808.592 2.192 1.408l1.536-.832c-.688-1.328-2.08-2.208-3.728-2.208-2.4 0-4.224 1.792-4.224 4.16s1.824 4.16 4.224 4.16c1.648 0 3.04-.88 3.728-2.208zm5.584 2.048h4.416c2.16 0 3.664-1.44 3.664-3.328 0-1.408-.784-2.272-1.824-2.704.624-.464 1.056-1.184 1.056-2.192 0-1.696-1.36-3.136-3.392-3.136h-3.92zm1.872-6.576v-3.072h1.952c1.024 0 1.648.704 1.648 1.536 0 .864-.624 1.536-1.648 1.536zm0 4.864v-3.264h2.496c1.216 0 1.888.704 1.888 1.632 0 .944-.688 1.632-1.888 1.632zm7.968 1.712h1.76v-3.904c0-1.6.912-2.448 1.92-2.448a2.74 2.74 0 0 1 .88.144v-1.808a3.443 3.443 0 0 0-.688-.064c-.912 0-1.808.592-2.112 1.504V692h-1.76zm13.6-4c0-2.32-1.824-4.16-4.192-4.16s-4.192 1.84-4.192 4.16 1.824 4.16 4.192 4.16 4.192-1.84 4.192-4.16zm-6.608 0c0-1.424.992-2.528 2.416-2.528 1.408 0 2.4 1.104 2.4 2.528s-.992 2.528-2.4 2.528c-1.424 0-2.416-1.104-2.416-2.528zm7.712 4h6.592v-1.6h-4.304l4.176-4.992V692h-6.4v1.6h4.128l-4.192 5.008z"/><path fill="#333" d="M833.694 686.09h-4.956V701h3.045v-4.872h1.911c3.024 0 5.229-2.184 5.229-5.019s-2.205-5.019-5.229-5.019zm-.042 7.182h-1.869v-4.326h1.869c1.386 0 2.31.945 2.31 2.163s-.924 2.163-2.31 2.163zm7.077 7.728h2.877v-5.124c0-2.016 1.008-2.982 2.331-2.982 1.197 0 1.848.924 1.848 2.436V701h2.877v-6.153c0-2.73-1.512-4.578-4.053-4.578-1.365 0-2.457.588-3.003 1.428v-6.447h-2.877zm22.931-5.25c0-3.066-2.477-5.481-5.522-5.481s-5.523 2.415-5.523 5.481 2.478 5.481 5.523 5.481 5.523-2.415 5.523-5.481zm-8.147 0c0-1.617 1.113-2.793 2.625-2.793s2.604 1.176 2.604 2.793-1.092 2.793-2.604 2.793-2.625-1.176-2.625-2.793zm16.905 5.145v-2.541c-.336.126-.714.189-1.176.189-1.24 0-1.785-.504-1.785-1.785v-3.738h2.96v-2.52h-2.96v-2.919h-2.877v2.919h-2.121v2.52h2.12v4.305c0 2.562 1.786 3.801 4.012 3.801.798 0 1.365-.084 1.827-.231zm1.932-4.305c0 2.793 1.407 4.641 3.948 4.641 1.344 0 2.33-.588 2.877-1.428V701h2.877v-10.5h-2.877v5.124c0 2.037-.882 2.982-2.163 2.982-1.24 0-1.785-.924-1.785-2.499V690.5h-2.877zm19.383 4.305v-2.541c-.336.126-.714.189-1.176.189-1.24 0-1.785-.504-1.785-1.785v-3.738h2.96v-2.52h-2.96v-2.919h-2.877v2.919h-2.121v2.52h2.12v4.305c0 2.562 1.786 3.801 4.012 3.801.798 0 1.365-.084 1.827-.231zm12.264-5.145c0-3.066-2.478-5.481-5.523-5.481s-5.523 2.415-5.523 5.481 2.478 5.481 5.523 5.481 5.523-2.415 5.523-5.481zm-8.148 0c0-1.617 1.113-2.793 2.625-2.793s2.604 1.176 2.604 2.793-1.092 2.793-2.604 2.793-2.625-1.176-2.625-2.793zm10.227 5.25h2.877v-5.019c0-1.722.903-2.793 2.268-2.793.462 0 .86.084 1.302.231V690.5a3.303 3.303 0 0 0-.966-.126c-1.176 0-2.247.777-2.604 1.806v-1.68h-2.877zm11.571-14.049a1.833 1.833 0 0 0-1.848-1.827c-.987 0-1.827.819-1.827 1.827s.84 1.827 1.827 1.827a1.833 1.833 0 0 0 1.848-1.827zM916.37 701h2.877v-10.5h-2.877zm4.978-5.25c0 2.982 2.142 5.481 4.935 5.481 1.449 0 2.562-.735 3.024-1.407V701h2.877v-10.5h-2.877v1.176c-.462-.672-1.575-1.407-3.024-1.407-2.793 0-4.935 2.499-4.935 5.481zm8.19 0c0 1.638-1.071 2.856-2.646 2.856s-2.646-1.218-2.646-2.856 1.07-2.856 2.646-2.856 2.646 1.218 2.646 2.856zm5.439 5.25h2.877v-15.75h-2.877z"/></g></svg>