<svg xmlns="http://www.w3.org/2000/svg" xmlns:xlink="http://www.w3.org/1999/xlink" xmlns:lucid="lucid" width="1300" height="946.25"><g transform="translate(800 260)" lucid:page-tab-id="0_0"><path d="M140 216.25c0 248.53-201.47 450-450 450s-450-201.47-450-450 201.47-450 450-450 450 201.47 450 450z" stroke="#3278ca" stroke-width="2" fill="#3278ca" fill-opacity=".4"/><path d="M445.07 210c0 248.53-201.47 450-450 450s-450-201.47-450-450 201.47-450 450-450 450 201.47 450 450z" stroke="#83e0e1" stroke-width="2" fill="#83e0e1" fill-opacity=".4"/><path d="M120 147.25h360v138H120z" stroke="#000" stroke-opacity="0" stroke-width="2" fill="#fff" fill-opacity="0"/><use xlink:href="#a" transform="matrix(1,0,0,1,125,152.2499999999999) translate(127.55555555555554 45.333333333333336)"/><use xlink:href="#b" transform="matrix(1,0,0,1,125,152.2499999999999) translate(41.675925925925895 101.33333333333334)"/><path d="M-294.93 147.25h240v138h-240z" stroke="#000" stroke-opacity="0" stroke-width="2" fill="#fff" fill-opacity="0"/><use xlink:href="#c" transform="matrix(1,0,0,1,-289.92739994351234,152.2499999999999) translate(51.37037037037037 46.66666666666667)"/><use xlink:href="#d" transform="matrix(1,0,0,1,-289.92739994351234,152.2499999999999) translate(21.81481481481481 110.66666666666667)"/><path d="M-780 131.25h340v170h-340z" stroke="#000" stroke-opacity="0" stroke-width="2" fill="#fff" fill-opacity="0"/><g><use xlink:href="#e" transform="matrix(1,0,0,1,-775,136.24999999999986) translate(43.277777777777786 62.489583333333336)"/><use xlink:href="#f" transform="matrix(1,0,0,1,-775,136.24999999999986) translate(38.611111111111086 118.48958333333334)"/><use xlink:href="#g" transform="matrix(1,0,0,1,-775,136.24999999999986) translate(146.46296296296296 118.48958333333334)"/></g><defs><path d="M266 0h-40l-56-210L115 0H75L2-248h35L96-30l15-64 43-154h32l59 218 59-218h35" id="h"/><path d="M100-194c63 0 86 42 84 106H49c0 40 14 67 53 68 26 1 43-12 49-29l28 8c-11 28-37 45-77 45C44 4 14-33 15-96c1-61 26-98 85-98zm52 81c6-60-76-77-97-28-3 7-6 17-6 28h103" id="i"/><path d="M115-194c53 0 69 39 70 98 0 66-23 100-70 100C84 3 66-7 56-30L54 0H23l1-261h32v101c10-23 28-34 59-34zm-8 174c40 0 45-34 45-75 0-40-5-75-45-74-42 0-51 32-51 76 0 43 10 73 51 73" id="j"/><g id="a"><use transform="matrix(0.12962962962962965,0,0,0.12962962962962965,0,0)" xlink:href="#h"/><use transform="matrix(0.12962962962962965,0,0,0.12962962962962965,43.037037037037045,0)" xlink:href="#i"/><use transform="matrix(0.12962962962962965,0,0,0.12962962962962965,68.96296296296298,0)" xlink:href="#j"/></g><path d="M30-248c87 1 191-15 191 75 0 78-77 80-158 76V0H30v-248zm33 125c57 0 124 11 124-50 0-59-68-47-124-48v98" id="k"/><path d="M114-163C36-179 61-72 57 0H25l-1-190h30c1 12-1 29 2 39 6-27 23-49 58-41v29" id="l"/><path d="M101-234c-31-9-42 10-38 44h38v23H63V0H32v-167H5v-23h27c-7-52 17-82 69-68v24" id="m"/><path d="M100-194c62-1 85 37 85 99 1 63-27 99-86 99S16-35 15-95c0-66 28-99 85-99zM99-20c44 1 53-31 53-75 0-43-8-75-51-75s-53 32-53 75 10 74 51 75" id="n"/><path d="M210-169c-67 3-38 105-44 169h-31v-121c0-29-5-50-35-48C34-165 62-65 56 0H25l-1-190h30c1 10-1 24 2 32 10-44 99-50 107 0 11-21 27-35 58-36 85-2 47 119 55 194h-31v-121c0-29-5-49-35-48" id="o"/><path d="M141-36C126-15 110 5 73 4 37 3 15-17 15-53c-1-64 63-63 125-63 3-35-9-54-41-54-24 1-41 7-42 31l-33-3c5-37 33-52 76-52 45 0 72 20 72 64v82c-1 20 7 32 28 27v20c-31 9-61-2-59-35zM48-53c0 20 12 33 32 33 41-3 63-29 60-74-43 2-92-5-92 41" id="p"/><path d="M117-194c89-4 53 116 60 194h-32v-121c0-31-8-49-39-48C34-167 62-67 57 0H25l-1-190h30c1 10-1 24 2 32 11-22 29-35 61-36" id="q"/><path d="M96-169c-40 0-48 33-48 73s9 75 48 75c24 0 41-14 43-38l32 2c-6 37-31 61-74 61-59 0-76-41-82-99-10-93 101-131 147-64 4 7 5 14 7 22l-32 3c-4-21-16-35-41-35" id="r"/><g id="b"><use transform="matrix(0.12962962962962965,0,0,0.12962962962962965,0,0)" xlink:href="#k"/><use transform="matrix(0.12962962962962965,0,0,0.12962962962962965,31.111111111111114,0)" xlink:href="#i"/><use transform="matrix(0.12962962962962965,0,0,0.12962962962962965,57.037037037037045,0)" xlink:href="#l"/><use transform="matrix(0.12962962962962965,0,0,0.12962962962962965,72.46296296296298,0)" xlink:href="#m"/><use transform="matrix(0.12962962962962965,0,0,0.12962962962962965,85.42592592592594,0)" xlink:href="#n"/><use transform="matrix(0.12962962962962965,0,0,0.12962962962962965,111.35185185185188,0)" xlink:href="#l"/><use transform="matrix(0.12962962962962965,0,0,0.12962962962962965,126.7777777777778,0)" xlink:href="#o"/><use transform="matrix(0.12962962962962965,0,0,0.12962962962962965,165.53703703703707,0)" xlink:href="#p"/><use transform="matrix(0.12962962962962965,0,0,0.12962962962962965,191.462962962963,0)" xlink:href="#q"/><use transform="matrix(0.12962962962962965,0,0,0.12962962962962965,217.3888888888889,0)" xlink:href="#r"/><use transform="matrix(0.12962962962962965,0,0,0.12962962962962965,240.72222222222226,0)" xlink:href="#i"/></g><path d="M197 0v-115H63V0H30v-248h33v105h134v-105h34V0h-34" id="s"/><path d="M84 4C-5 8 30-112 23-190h32v120c0 31 7 50 39 49 72-2 45-101 50-169h31l1 190h-30c-1-10 1-25-2-33-11 22-28 36-60 37" id="t"/><path d="M177-190C167-65 218 103 67 71c-23-6-38-20-44-43l32-5c15 47 100 32 89-28v-30C133-14 115 1 83 1 29 1 15-40 15-95c0-56 16-97 71-98 29-1 48 16 59 35 1-10 0-23 2-32h30zM94-22c36 0 50-32 50-73 0-42-14-75-50-75-39 0-46 34-46 75s6 73 46 73" id="u"/><g id="c"><use transform="matrix(0.14814814814814817,0,0,0.14814814814814817,0,0)" xlink:href="#s"/><use transform="matrix(0.14814814814814817,0,0,0.14814814814814817,38.370370370370374,0)" xlink:href="#t"/><use transform="matrix(0.14814814814814817,0,0,0.14814814814814817,68,0)" xlink:href="#u"/><use transform="matrix(0.14814814814814817,0,0,0.14814814814814817,97.62962962962962,0)" xlink:href="#i"/></g><path d="M140-251c81 0 123 46 123 126C263-46 219 4 140 4 59 4 17-45 17-125s42-126 123-126zm0 227c63 0 89-41 89-101s-29-99-89-99c-61 0-89 39-89 99S79-25 140-24" id="v"/><path d="M108 0H70L1-190h34L89-25l56-165h34" id="w"/><path d="M24 0v-261h32V0H24" id="x"/><path d="M115-194c55 1 70 41 70 98S169 2 115 4C84 4 66-9 55-30l1 105H24l-1-265h31l2 30c10-21 28-34 59-34zm-8 174c40 0 45-34 45-75s-6-73-45-74c-42 0-51 32-51 76 0 43 10 73 51 73" id="y"/><g id="d"><use transform="matrix(0.14814814814814817,0,0,0.14814814814814817,0,0)" xlink:href="#v"/><use transform="matrix(0.14814814814814817,0,0,0.14814814814814817,41.48148148148149,0)" xlink:href="#w"/><use transform="matrix(0.14814814814814817,0,0,0.14814814814814817,68.14814814814815,0)" xlink:href="#i"/><use transform="matrix(0.14814814814814817,0,0,0.14814814814814817,97.77777777777779,0)" xlink:href="#l"/><use transform="matrix(0.14814814814814817,0,0,0.14814814814814817,115.40740740740742,0)" xlink:href="#x"/><use transform="matrix(0.14814814814814817,0,0,0.14814814814814817,127.11111111111113,0)" xlink:href="#p"/><use transform="matrix(0.14814814814814817,0,0,0.14814814814814817,156.74074074074076,0)" xlink:href="#y"/></g><path d="M185-189c-5-48-123-54-124 2 14 75 158 14 163 119 3 78-121 87-175 55-17-10-28-26-33-46l33-7c5 56 141 63 141-1 0-78-155-14-162-118-5-82 145-84 179-34 5 7 8 16 11 25" id="z"/><path d="M135-143c-3-34-86-38-87 0 15 53 115 12 119 90S17 21 10-45l28-5c4 36 97 45 98 0-10-56-113-15-118-90-4-57 82-63 122-42 12 7 21 19 24 35" id="A"/><path d="M59-47c-2 24 18 29 38 22v24C64 9 27 4 27-40v-127H5v-23h24l9-43h21v43h35v23H59v120" id="B"/><path d="M24-231v-30h32v30H24zM24 0v-190h32V0H24" id="C"/><g id="e"><use transform="matrix(0.12962962962962965,0,0,0.12962962962962965,0,0)" xlink:href="#z"/><use transform="matrix(0.12962962962962965,0,0,0.12962962962962965,31.111111111111114,0)" xlink:href="#t"/><use transform="matrix(0.12962962962962965,0,0,0.12962962962962965,57.037037037037045,0)" xlink:href="#A"/><use transform="matrix(0.12962962962962965,0,0,0.12962962962962965,80.37037037037038,0)" xlink:href="#B"/><use transform="matrix(0.12962962962962965,0,0,0.12962962962962965,93.33333333333334,0)" xlink:href="#p"/><use transform="matrix(0.12962962962962965,0,0,0.12962962962962965,119.25925925925927,0)" xlink:href="#C"/><use transform="matrix(0.12962962962962965,0,0,0.12962962962962965,129.5,0)" xlink:href="#q"/><use transform="matrix(0.12962962962962965,0,0,0.12962962962962965,155.42592592592592,0)" xlink:href="#p"/><use transform="matrix(0.12962962962962965,0,0,0.12962962962962965,181.35185185185185,0)" xlink:href="#j"/><use transform="matrix(0.12962962962962965,0,0,0.12962962962962965,207.27777777777777,0)" xlink:href="#x"/><use transform="matrix(0.12962962962962965,0,0,0.12962962962962965,217.5185185185185,0)" xlink:href="#i"/></g><g id="f"><use transform="matrix(0.12962962962962965,0,0,0.12962962962962965,0,0)" xlink:href="#h"/><use transform="matrix(0.12962962962962965,0,0,0.12962962962962965,43.037037037037045,0)" xlink:href="#i"/><use transform="matrix(0.12962962962962965,0,0,0.12962962962962965,68.96296296296298,0)" xlink:href="#j"/></g><path d="M30-248c118-7 216 8 213 122C240-48 200 0 122 0H30v-248zM63-27c89 8 146-16 146-99s-60-101-146-95v194" id="D"/><g id="g"><use transform="matrix(0.12962962962962965,0,0,0.12962962962962965,0,0)" xlink:href="#D"/><use transform="matrix(0.12962962962962965,0,0,0.12962962962962965,33.574074074074076,0)" xlink:href="#i"/><use transform="matrix(0.12962962962962965,0,0,0.12962962962962965,59.50000000000001,0)" xlink:href="#A"/><use transform="matrix(0.12962962962962965,0,0,0.12962962962962965,82.83333333333334,0)" xlink:href="#C"/><use transform="matrix(0.12962962962962965,0,0,0.12962962962962965,93.07407407407409,0)" xlink:href="#u"/><use transform="matrix(0.12962962962962965,0,0,0.12962962962962965,119.00000000000003,0)" xlink:href="#q"/></g></defs></g></svg>